
<!-- Generator: visioncortex VTracer 0.6.4 -->
<svg version="1.1" xmlns="http://www.w3.org/2000/svg" viewBox="0 0 512 512" preserveAspectRatio="xMidYMid meet">
<path d="M0 0 C7.251 6.141 12.14 13.348 16.312 21.812 C17.533 21.815 17.533 21.815 18.778 21.817 C26.458 21.835 34.138 21.876 41.818 21.945 C45.766 21.979 49.713 22.004 53.662 22.008 C57.475 22.012 61.287 22.041 65.099 22.086 C66.551 22.099 68.003 22.103 69.455 22.099 C82.244 22.068 82.244 22.068 86.215 24.902 C88.859 28.571 89.01 30.584 88.898 35.082 C88.89 35.763 88.881 36.444 88.873 37.146 C88.839 39.307 88.764 41.465 88.688 43.625 C88.657 45.096 88.63 46.566 88.605 48.037 C88.54 51.63 88.436 55.221 88.312 58.812 C89.416 58.803 90.52 58.793 91.658 58.782 C97.745 58.832 102.525 60.297 107.188 64.25 C107.889 65.096 108.59 65.941 109.312 66.812 C110.148 67.679 110.148 67.679 111 68.562 C114.539 74.629 114.614 82.054 114.578 88.906 C114.58 89.738 114.582 90.569 114.584 91.426 C114.585 93.171 114.582 94.915 114.573 96.66 C114.563 99.306 114.573 101.951 114.586 104.598 C114.585 106.305 114.582 108.012 114.578 109.719 C114.582 110.497 114.586 111.276 114.59 112.078 C114.524 119.999 113.643 127.64 108.312 133.812 C101.554 138.944 96.629 139.861 88.312 139.812 C88.352 141.364 88.352 141.364 88.392 142.946 C88.483 146.794 88.54 150.642 88.587 154.491 C88.612 156.155 88.646 157.818 88.69 159.482 C88.751 161.877 88.779 164.272 88.801 166.668 C88.827 167.408 88.852 168.148 88.879 168.91 C88.881 172.693 88.42 174.658 86.25 177.791 C82.511 180.364 80.338 180.391 75.824 180.301 C74.769 180.29 74.769 180.29 73.693 180.279 C71.461 180.251 69.231 180.189 67 180.125 C65.481 180.1 63.962 180.077 62.443 180.057 C58.732 180.002 55.023 179.915 51.312 179.812 C51.333 180.396 51.354 180.98 51.376 181.582 C52.11 205.107 52.11 205.107 44.062 215.125 C38.155 221.373 31.279 225.391 22.598 226.004 C19.256 226.087 15.918 226.106 12.575 226.103 C11.304 226.11 10.034 226.116 8.724 226.123 C5.253 226.141 1.782 226.146 -1.69 226.147 C-3.864 226.148 -6.037 226.153 -8.211 226.158 C-15.81 226.176 -23.409 226.185 -31.008 226.183 C-38.067 226.182 -45.126 226.203 -52.185 226.235 C-58.265 226.261 -64.345 226.271 -70.425 226.27 C-74.048 226.27 -77.67 226.275 -81.293 226.297 C-85.339 226.32 -89.386 226.31 -93.433 226.298 C-94.616 226.31 -95.8 226.321 -97.02 226.332 C-107.426 226.254 -116.301 224.076 -123.969 216.738 C-131.281 208.545 -133.002 200.697 -132.812 189.938 C-132.803 188.963 -132.794 187.988 -132.785 186.984 C-132.762 184.593 -132.729 182.203 -132.688 179.812 C-133.631 179.839 -134.574 179.865 -135.546 179.892 C-139.059 179.977 -142.571 180.04 -146.085 180.087 C-147.603 180.112 -149.121 180.146 -150.638 180.19 C-152.826 180.251 -155.011 180.279 -157.199 180.301 C-158.514 180.327 -159.828 180.353 -161.182 180.38 C-164.688 179.812 -164.688 179.812 -167.625 177.791 C-170.229 174.03 -170.33 171.078 -170.176 166.668 C-170.169 165.898 -170.162 165.128 -170.154 164.335 C-170.126 161.889 -170.064 159.445 -170 157 C-169.975 155.337 -169.952 153.673 -169.932 152.01 C-169.877 147.943 -169.79 143.878 -169.688 139.812 C-171.694 139.829 -173.701 139.846 -175.707 139.863 C-181.397 139.718 -186.786 136.822 -190.688 132.812 C-195.165 125.612 -195.849 119.023 -195.891 110.707 C-195.896 109.828 -195.902 108.949 -195.908 108.043 C-195.917 106.184 -195.924 104.326 -195.928 102.468 C-195.937 99.652 -195.968 96.837 -196 94.021 C-196.124 73.085 -196.124 73.085 -190.375 65.938 C-183.097 60.183 -178.871 58.77 -169.688 58.812 C-169.708 57.894 -169.729 56.976 -169.751 56.03 C-169.819 52.616 -169.869 49.202 -169.907 45.788 C-169.927 44.311 -169.955 42.835 -169.989 41.359 C-170.038 39.234 -170.06 37.11 -170.078 34.984 C-170.099 33.707 -170.12 32.429 -170.142 31.112 C-169.611 27.254 -168.727 26.149 -165.688 23.812 C-162.887 22.412 -160.534 22.649 -157.402 22.607 C-156.436 22.592 -156.436 22.592 -155.45 22.577 C-153.318 22.546 -151.187 22.521 -149.055 22.496 C-147.578 22.476 -146.101 22.455 -144.624 22.433 C-140.734 22.378 -136.845 22.328 -132.955 22.28 C-128.987 22.23 -125.019 22.174 -121.051 22.119 C-113.263 22.012 -105.475 21.91 -97.688 21.812 C-97.296 21.072 -96.904 20.332 -96.5 19.569 C-95.976 18.59 -95.451 17.61 -94.91 16.602 C-94.395 15.634 -93.879 14.667 -93.348 13.67 C-85.388 -0.03 -71.066 -8.376 -56.277 -12.93 C-36.154 -17.834 -16.157 -12.395 0 0 Z " fill="#000000" transform="translate(390.6875,61.1875)"/>
<path d="M0 0 C3.166 2.161 6.076 4.527 9 7 C9.99 7.66 10.98 8.32 12 9 C12.33 8.01 12.66 7.02 13 6 C22.124 -2.11 31.515 -4.675 43.543 -4.336 C53.945 -3.325 61.08 1.282 68 9 C68.878 10.411 69.717 11.847 70.5 13.312 C72.909 17.643 76.033 18.595 80.582 20.16 C88.327 22.85 94.442 29.39 98.363 36.457 C100.851 42.201 101.735 47.772 102 54 C102.722 54.248 103.444 54.495 104.188 54.75 C111.223 57.877 115.138 63.54 119 70 C119.525 71.4 120.01 72.817 120.438 74.25 C121.808 78.472 124.366 80.075 127.941 82.516 C134.823 87.478 138.304 94.487 140.75 102.438 C141.82 113.409 140.449 123.769 133.812 132.938 C126.715 141.167 117.95 145.478 107.132 146.291 C102.477 146.45 97.822 146.444 93.164 146.434 C91.436 146.438 89.708 146.443 87.98 146.449 C84.37 146.458 80.761 146.456 77.152 146.446 C72.557 146.435 67.963 146.455 63.368 146.484 C59.803 146.502 56.237 146.502 52.672 146.496 C50.979 146.496 49.286 146.502 47.594 146.515 C34.787 146.596 23.792 145.577 13.328 137.367 C12 136 12 136 12 134 C11.287 134.543 10.574 135.085 9.84 135.645 C0.369 142.719 -6.707 146.131 -18.645 146.177 C-19.775 146.187 -19.775 146.187 -20.929 146.197 C-23.413 146.217 -25.898 146.228 -28.383 146.238 C-29.236 146.242 -30.089 146.246 -30.968 146.251 C-35.487 146.271 -40.006 146.286 -44.525 146.295 C-49.169 146.306 -53.812 146.341 -58.455 146.38 C-62.046 146.407 -65.637 146.415 -69.229 146.418 C-70.939 146.423 -72.649 146.435 -74.359 146.453 C-88.85 146.602 -99.788 144.699 -110.684 134.41 C-117.876 126.788 -119.597 118.439 -119.473 108.26 C-119.084 98.769 -115.595 90.885 -109 84 C-107.478 82.849 -105.935 81.724 -104.375 80.625 C-100.011 77.428 -98.821 74.663 -97.152 69.633 C-94.24 62.979 -88.401 57.323 -82 54 C-81.34 54 -80.68 54 -80 54 C-80.155 52.144 -80.155 52.144 -80.312 50.25 C-80.269 40.952 -75.696 32.595 -69.391 25.977 C-64.298 21.766 -58.236 19.079 -52 17 C-50.604 15.142 -50.604 15.142 -49.312 12.875 C-44.192 4.922 -37.24 -0.65 -28.207 -3.582 C-18.649 -5.392 -8.608 -4.626 0 0 Z " fill="#020101" transform="translate(127,319)"/>
<path d="M0 0 C56.76 0 113.52 0 172 0 C172 23.1 172 46.2 172 70 C115.24 70 58.48 70 0 70 C0 46.9 0 23.8 0 0 Z " fill="#E6E9EC" transform="translate(264,128)"/>
<path d="M0 0 C0.793 -0.008 1.586 -0.016 2.403 -0.024 C5.057 -0.044 7.71 -0.028 10.364 -0.012 C12.268 -0.019 14.172 -0.028 16.076 -0.039 C21.246 -0.061 26.414 -0.053 31.584 -0.037 C36.992 -0.024 42.4 -0.036 47.809 -0.044 C56.891 -0.053 65.973 -0.041 75.056 -0.017 C85.558 0.01 96.06 0.001 106.563 -0.026 C115.578 -0.049 124.593 -0.052 133.608 -0.039 C138.993 -0.031 144.378 -0.03 149.764 -0.047 C154.826 -0.061 159.889 -0.051 164.951 -0.022 C166.81 -0.015 168.669 -0.017 170.528 -0.028 C173.064 -0.042 175.599 -0.025 178.135 0 C178.872 -0.011 179.609 -0.022 180.368 -0.034 C184.218 0.04 185.946 0.541 189.024 2.926 C190.986 5.527 191.692 6.465 191.689 9.619 C191.7 10.376 191.711 11.133 191.723 11.913 C191.71 12.729 191.696 13.544 191.683 14.385 C191.688 15.255 191.694 16.126 191.699 17.023 C191.711 19.894 191.687 22.764 191.661 25.635 C191.659 27.634 191.659 29.632 191.661 31.631 C191.66 35.817 191.641 40.003 191.609 44.19 C191.57 49.553 191.565 54.916 191.573 60.28 C191.576 64.406 191.564 68.532 191.547 72.659 C191.54 74.636 191.537 76.614 191.537 78.591 C191.536 81.356 191.514 84.12 191.487 86.885 C191.49 87.701 191.493 88.516 191.496 89.357 C191.428 93.928 191.03 96.929 188.067 100.635 C184.407 103.075 181.683 102.92 177.451 102.902 C176.277 102.909 176.277 102.909 175.078 102.916 C172.446 102.929 169.814 102.927 167.181 102.925 C165.297 102.931 163.413 102.938 161.529 102.946 C156.405 102.963 151.281 102.968 146.157 102.969 C141.883 102.971 137.609 102.979 133.334 102.986 C123.251 103.002 113.168 103.007 103.084 103.006 C92.676 103.004 82.268 103.025 71.86 103.057 C62.93 103.083 54 103.094 45.07 103.093 C39.734 103.092 34.398 103.098 29.062 103.119 C24.044 103.138 19.026 103.139 14.007 103.124 C12.164 103.122 10.322 103.127 8.479 103.139 C5.965 103.154 3.452 103.145 0.938 103.129 C-0.158 103.145 -0.158 103.145 -1.276 103.161 C-6.095 103.095 -8.549 102.056 -11.933 98.635 C-13.57 95.36 -13.107 91.734 -13.125 88.134 C-13.134 87.254 -13.142 86.374 -13.15 85.468 C-13.175 82.548 -13.192 79.629 -13.206 76.709 C-13.211 75.713 -13.217 74.717 -13.222 73.691 C-13.249 68.421 -13.268 63.15 -13.283 57.879 C-13.299 52.432 -13.344 46.984 -13.395 41.537 C-13.429 37.351 -13.44 33.166 -13.446 28.98 C-13.453 26.972 -13.468 24.963 -13.492 22.955 C-13.523 20.144 -13.524 17.335 -13.516 14.524 C-13.533 13.695 -13.549 12.865 -13.566 12.01 C-13.558 11.24 -13.549 10.47 -13.541 9.677 C-13.544 9.014 -13.547 8.35 -13.551 7.666 C-11.498 0.919 -6.247 -0.095 0 0 Z M3.067 16.635 C3.067 39.735 3.067 62.835 3.067 86.635 C59.827 86.635 116.587 86.635 175.067 86.635 C175.067 63.535 175.067 40.435 175.067 16.635 C118.307 16.635 61.547 16.635 3.067 16.635 Z " fill="#040304" transform="translate(260.9326171875,111.36508178710938)"/>
<path d="M0 0 C5.021 4.108 8.503 9.172 9.349 15.684 C9.461 18.776 9.45 21.844 9.391 24.938 C9.385 26.058 9.379 27.179 9.373 28.333 C9.351 31.889 9.301 35.444 9.25 39 C9.23 41.421 9.212 43.841 9.195 46.262 C9.151 52.175 9.085 58.087 9 64 C8.309 63.91 7.619 63.821 6.907 63.729 C6.003 63.622 5.099 63.516 4.168 63.406 C3.271 63.296 2.374 63.186 1.45 63.072 C-1.156 62.786 -1.156 62.786 -3.688 64.5 C-5.087 67.165 -5.605 69.021 -5.016 72.012 C-3.099 75.764 0.436 78.129 3.609 80.809 C7.925 84.764 8.79 88.106 9.438 93.938 C9.183 99.423 7.056 103.846 3.281 107.801 C-1.827 112.335 -5.688 113.153 -12.466 113.193 C-13.603 113.205 -13.603 113.205 -14.763 113.218 C-17.273 113.242 -19.783 113.259 -22.293 113.273 C-23.581 113.281 -23.581 113.281 -24.896 113.29 C-29.443 113.316 -33.991 113.336 -38.539 113.35 C-42.296 113.363 -46.052 113.391 -49.809 113.432 C-54.351 113.482 -58.893 113.506 -63.435 113.513 C-65.162 113.52 -66.889 113.535 -68.615 113.559 C-84.894 113.773 -84.894 113.773 -90.643 109.435 C-93.072 106.866 -94.492 104.197 -96 101 C-96.33 100.34 -96.66 99.68 -97 99 C-97.557 93.049 -97.56 88.007 -94 83 C-88.966 77.945 -85.245 74.909 -77.938 74.562 C-72.214 74.57 -68.863 76.384 -64.289 79.688 C-61.596 81.232 -60.058 81.37 -57 81 C-54.543 79.543 -54.543 79.543 -53 77 C-52.167 73.543 -52.167 73.543 -53 70 C-58.47 63.969 -66.364 61.349 -74 59 C-72.483 54.752 -69.806 53.226 -66 51 C-64.732 50.555 -63.461 50.117 -62.188 49.688 C-61.136 49.131 -60.084 48.574 -59 48 C-58.078 44.865 -57.958 42.263 -58.066 39.012 C-58.252 32.643 -56.904 28.204 -52.625 23.25 C-47.191 18.592 -43.808 17.494 -36.648 17.715 C-31.663 18.252 -28.6 20.43 -25 23.688 C-22.201 26.242 -22.201 26.242 -18.812 26.438 C-15.801 26.171 -15.801 26.171 -13 24 C-11.932 19.991 -11.932 19.991 -12 16 C-14.628 11.949 -17.656 9.673 -21.75 7.188 C-22.735 6.583 -23.72 5.978 -24.734 5.355 C-25.482 4.908 -26.23 4.461 -27 4 C-25.298 0.214 -23.751 -1.124 -20 -3 C-12.765 -5.744 -6.207 -4.071 0 0 Z " fill="#FA626D" transform="translate(121,335)"/>
<path d="M0 0 C2.076 1.491 3.328 3.165 4.762 5.266 C4.109 5.618 3.457 5.969 2.785 6.332 C-2.829 9.503 -7.883 12.603 -11.238 18.266 C-11.763 21.563 -11.298 23.087 -10.238 26.266 C-6.818 27.163 -4.698 27.656 -1.238 27.266 C1.731 25.439 4.338 23.33 7.066 21.164 C10.948 18.43 14.07 17.623 18.762 18.266 C25.132 19.989 29.146 22.788 32.762 28.266 C34.543 32.663 34.961 36.228 34.824 40.953 C34.687 45.695 34.687 45.695 35.762 50.266 C37.631 51.074 37.631 51.074 39.887 51.578 C44.836 53.059 48.252 55.496 51.762 59.266 C51.762 59.596 51.762 59.926 51.762 60.266 C51.156 60.413 50.55 60.56 49.926 60.711 C42.398 62.726 34.231 65.562 29.762 72.266 C29.994 77.306 29.994 77.306 32.762 81.266 C39.012 81.891 41.639 81.108 46.762 77.266 C51.877 75.22 57.374 75.795 62.449 77.516 C68.069 80.484 71.673 83.109 73.762 89.266 C74.61 96.706 74.408 102.274 69.762 108.266 C64.66 113.25 61.188 114.417 54.194 114.443 C53.414 114.449 52.633 114.456 51.829 114.463 C49.239 114.482 46.649 114.494 44.059 114.504 C43.174 114.508 42.29 114.512 41.379 114.516 C36.697 114.537 32.015 114.551 27.333 114.561 C22.5 114.572 17.667 114.606 12.834 114.646 C9.116 114.672 5.398 114.68 1.68 114.684 C-0.102 114.689 -1.883 114.701 -3.664 114.719 C-6.161 114.743 -8.656 114.743 -11.153 114.736 C-11.886 114.748 -12.619 114.761 -13.374 114.774 C-19.247 114.715 -22.7 112.678 -26.883 108.703 C-31.211 103.376 -31.712 98.901 -31.648 92.156 C-30.87 86.671 -27.812 82.348 -23.539 78.891 C-22.136 77.967 -20.69 77.11 -19.238 76.266 C-17.818 73.425 -17.924 71.411 -18.238 68.266 C-19.738 65.766 -19.738 65.766 -22.238 64.266 C-25.713 63.911 -27.922 64.16 -31.238 65.266 C-31.34 57.846 -31.41 50.426 -31.458 43.006 C-31.478 40.483 -31.505 37.96 -31.54 35.438 C-31.589 31.806 -31.611 28.175 -31.629 24.543 C-31.65 23.42 -31.67 22.297 -31.691 21.139 C-31.694 13.527 -30.67 9.129 -25.527 3.34 C-17.498 -3.352 -9.373 -4.791 0 0 Z " fill="#FA626D" transform="translate(177.23828125,333.734375)"/>
<path d="M0 0 C74.58 0 149.16 0 226 0 C226 40.92 226 81.84 226 124 C151.42 124 76.84 124 0 124 C0 83.08 0 42.16 0 0 Z M11 16 C10.275 17.988 10.275 17.988 10.372 20.022 C10.359 20.788 10.347 21.553 10.333 22.342 C10.345 23.167 10.357 23.992 10.369 24.842 C10.362 25.722 10.355 26.602 10.347 27.509 C10.33 30.413 10.35 33.315 10.371 36.219 C10.37 38.24 10.368 40.261 10.364 42.282 C10.361 46.516 10.376 50.749 10.403 54.982 C10.437 60.406 10.431 65.829 10.412 71.254 C10.402 75.426 10.411 79.599 10.426 83.772 C10.431 85.772 10.431 87.771 10.424 89.771 C10.419 92.567 10.439 95.362 10.467 98.158 C10.46 98.983 10.454 99.808 10.447 100.658 C10.513 104.632 10.717 106.556 12.908 109.99 C16.561 113.5 19.673 113.148 24.496 113.147 C25.669 113.153 25.669 113.153 26.866 113.158 C29.502 113.169 32.137 113.173 34.773 113.177 C36.656 113.183 38.54 113.19 40.424 113.197 C45.552 113.214 50.68 113.225 55.809 113.233 C59.01 113.238 62.212 113.244 65.414 113.251 C75.426 113.27 85.438 113.284 95.45 113.292 C107.018 113.302 118.586 113.328 130.154 113.369 C139.088 113.399 148.022 113.414 156.957 113.417 C162.296 113.419 167.635 113.428 172.975 113.453 C177.997 113.477 183.019 113.481 188.042 113.471 C189.886 113.47 191.731 113.477 193.575 113.49 C196.091 113.508 198.607 113.501 201.123 113.488 C202.22 113.504 202.22 113.504 203.339 113.521 C206.901 113.476 208.887 113.071 211.93 111.157 C215.764 107.162 215.166 102.695 215.193 97.477 C215.201 96.607 215.209 95.737 215.218 94.84 C215.242 91.958 215.259 89.077 215.273 86.195 C215.281 84.719 215.281 84.719 215.29 83.214 C215.316 78.008 215.336 72.802 215.35 67.596 C215.367 62.217 215.412 56.838 215.462 51.459 C215.496 47.324 215.508 43.189 215.513 39.054 C215.52 37.071 215.535 35.088 215.559 33.105 C215.591 30.33 215.591 27.557 215.583 24.782 C215.6 23.963 215.616 23.144 215.633 22.3 C215.625 21.54 215.617 20.781 215.608 19.998 C215.611 19.343 215.615 18.687 215.618 18.012 C214.579 14.628 212.767 13.142 210 11 C207.154 10.507 204.907 10.322 202.067 10.365 C201.274 10.357 200.481 10.349 199.664 10.341 C197.01 10.322 194.357 10.337 191.703 10.353 C189.799 10.346 187.895 10.337 185.991 10.326 C180.822 10.304 175.653 10.313 170.483 10.328 C165.075 10.341 159.667 10.329 154.259 10.321 C145.176 10.312 136.094 10.324 127.012 10.348 C116.509 10.375 106.007 10.367 95.504 10.339 C86.489 10.316 77.475 10.313 68.459 10.326 C63.074 10.334 57.689 10.335 52.304 10.319 C47.241 10.304 42.179 10.314 37.116 10.343 C35.257 10.35 33.398 10.348 31.54 10.337 C29.003 10.323 26.469 10.34 23.933 10.365 C23.196 10.354 22.459 10.343 21.7 10.331 C16.449 10.432 14.138 11.835 11 16 Z " fill="#9DAAB8" transform="translate(237,101)"/>
<path d="M0 0 C50.16 0 100.32 0 152 0 C152 21.111 152 21.111 147.898 26.406 C141.617 31.68 135.528 31.44 127.696 31.42 C126.459 31.428 125.223 31.437 123.949 31.446 C120.568 31.465 117.189 31.471 113.808 31.469 C110.98 31.469 108.152 31.477 105.325 31.486 C98.649 31.505 91.974 31.508 85.299 31.501 C78.427 31.494 71.555 31.517 64.683 31.554 C58.77 31.585 52.858 31.596 46.945 31.592 C43.419 31.59 39.893 31.596 36.368 31.62 C32.432 31.647 28.498 31.633 24.563 31.615 C23.404 31.628 22.246 31.642 21.052 31.655 C15.122 31.594 10.76 31.029 5.699 27.853 C-2.416 19.001 0 12.239 0 0 Z " fill="#7E8E9E" transform="translate(274,240)"/>
<path d="M0 0 C2.613 1.313 4.686 3.076 6.875 5 C8.087 6.013 9.299 7.026 10.512 8.039 C11.1 8.542 11.688 9.045 12.294 9.563 C15.438 12.211 18.745 14.656 22.012 17.148 C24.337 19.314 25.714 21.085 27 24 C26.932 27.556 26.52 29.357 24.277 32.133 C21.546 34.459 18.798 36.754 16 39 C15.369 39.521 14.739 40.041 14.089 40.578 C12.037 42.264 9.961 43.917 7.875 45.562 C7.219 46.1 6.563 46.637 5.886 47.19 C1.074 50.883 -1.94 51.731 -8 51 C-11.065 48.957 -11.822 47.559 -12.938 44.062 C-13.012 40.416 -12.147 38.89 -10 36 C-9.67 35.67 -9.34 35.34 -9 35 C-20.88 34.67 -32.76 34.34 -45 34 C-44.974 37.427 -44.948 40.854 -44.921 44.385 C-44.838 55.701 -44.782 67.016 -44.741 78.332 C-44.715 85.194 -44.68 92.055 -44.623 98.917 C-44.568 105.537 -44.539 112.157 -44.526 118.777 C-44.516 121.304 -44.498 123.832 -44.471 126.359 C-44.435 129.896 -44.43 133.431 -44.432 136.968 C-44.414 138.016 -44.396 139.064 -44.378 140.143 C-44.412 144.921 -44.429 147.233 -47.348 151.154 C-50 153 -50 153 -53 153.562 C-56.682 152.872 -58.368 151.632 -61 149 C-61.985 146.046 -62.13 144.121 -62.14 141.041 C-62.146 140.018 -62.152 138.994 -62.158 137.94 C-62.159 136.818 -62.16 135.696 -62.161 134.54 C-62.166 133.357 -62.171 132.175 -62.176 130.957 C-62.188 127.713 -62.196 124.469 -62.2 121.225 C-62.203 119.198 -62.207 117.171 -62.212 115.144 C-62.225 108.8 -62.235 102.456 -62.239 96.113 C-62.243 88.792 -62.261 81.472 -62.29 74.152 C-62.312 68.491 -62.322 62.831 -62.323 57.17 C-62.324 53.791 -62.33 50.411 -62.348 47.031 C-62.365 43.26 -62.363 39.49 -62.356 35.719 C-62.366 34.601 -62.375 33.483 -62.384 32.331 C-62.379 31.302 -62.373 30.273 -62.367 29.213 C-62.369 28.322 -62.37 27.43 -62.372 26.512 C-61.911 23.396 -60.839 21.541 -59 19 C-55.83 16.887 -54.984 16.74 -51.345 16.681 C-49.934 16.651 -49.934 16.651 -48.494 16.621 C-47.482 16.609 -46.469 16.598 -45.426 16.586 C-44.387 16.567 -43.348 16.547 -42.277 16.527 C-38.956 16.467 -35.634 16.421 -32.312 16.375 C-30.062 16.337 -27.811 16.298 -25.561 16.258 C-20.04 16.162 -14.52 16.077 -9 16 C-9.477 15.575 -9.954 15.149 -10.445 14.711 C-12.9 12.009 -12.877 9.568 -13 6 C-10.209 -0.113 -6.485 -1.042 0 0 Z " fill="#000000" transform="translate(147,135)"/>
<path d="M0 0 C0.681 0.064 1.361 0.129 2.062 0.195 C4.77 1.145 5.512 2.446 7 4.875 C7.388 7.379 7.388 7.379 7.404 10.223 C7.417 11.291 7.429 12.358 7.442 13.459 C7.44 14.607 7.437 15.755 7.434 16.938 C7.439 18.121 7.444 19.304 7.449 20.524 C7.456 23.025 7.455 25.527 7.446 28.028 C7.438 31.861 7.466 35.691 7.498 39.523 C7.5 41.953 7.499 44.383 7.496 46.812 C7.507 47.96 7.519 49.108 7.53 50.291 C7.516 51.893 7.516 51.893 7.502 53.527 C7.502 54.466 7.501 55.404 7.501 56.371 C6.841 59.668 5.644 60.851 3 62.875 C1.038 63.394 1.038 63.394 -1.034 63.421 C-2.205 63.45 -2.205 63.45 -3.399 63.481 C-4.232 63.482 -5.064 63.483 -5.922 63.484 C-6.782 63.501 -7.642 63.517 -8.528 63.534 C-11.269 63.583 -14.009 63.604 -16.75 63.625 C-18.611 63.653 -20.471 63.683 -22.332 63.715 C-26.888 63.789 -31.444 63.838 -36 63.875 C-35.351 64.494 -34.702 65.113 -34.033 65.75 C-31.826 68.057 -31.452 68.771 -31.5 71.875 C-31.664 74.803 -31.947 75.796 -33.625 78.312 C-36.635 80.293 -38.377 80.875 -42 80.875 C-47.638 78.059 -52.3 74.397 -57.125 70.375 C-58.503 69.239 -59.88 68.104 -61.258 66.969 C-61.9 66.435 -62.542 65.901 -63.204 65.352 C-64.759 64.073 -66.342 62.83 -67.93 61.594 C-70.539 59.428 -70.917 58.481 -71.375 55.125 C-70.803 50.167 -67.752 47.378 -64.092 44.238 C-61.942 42.537 -59.762 40.886 -57.562 39.25 C-56.825 38.691 -56.087 38.131 -55.326 37.555 C-44.073 29.072 -44.073 29.072 -39.938 28.312 C-35.845 29.096 -34.425 30.523 -32 33.875 C-31.251 39.21 -31.679 40.447 -35 44.875 C-26.75 45.205 -18.5 45.535 -10 45.875 C-10.052 41.739 -10.052 41.739 -10.105 37.52 C-10.129 34.842 -10.147 32.165 -10.165 29.487 C-10.18 27.63 -10.2 25.772 -10.226 23.915 C-10.263 21.241 -10.28 18.568 -10.293 15.895 C-10.308 15.067 -10.324 14.24 -10.34 13.388 C-10.341 8.721 -10.055 5.648 -7 1.875 C-3.881 -0.204 -3.463 -0.407 0 0 Z " fill="#000000" transform="translate(355,324.125)"/>
<path d="M0 0 C8.238 5.142 12.817 11.005 15.871 20.168 C16.843 29.888 14.775 36.792 8.746 44.418 C3.056 50.408 -2.714 53.287 -11.034 53.809 C-18.985 53.987 -25.09 52.586 -31.129 47.168 C-37.766 40.163 -40.739 32.904 -40.484 23.238 C-39.61 15.685 -36.441 8.696 -30.496 3.832 C-21.86 -2.635 -10.139 -4.644 0 0 Z " fill="#020202" transform="translate(413.12890625,136.83203125)"/>
<path d="M0 0 C5.69 3.865 10.561 9.698 12.703 16.34 C14.393 25.592 12.783 33.481 7.832 41.418 C3.996 46.463 -0.853 49.628 -6.918 51.414 C-15.933 52.404 -23.603 52.431 -30.965 46.867 C-37.509 41.469 -42.283 35.591 -43.176 26.906 C-43.546 18.036 -41.199 11.929 -35.605 5.102 C-26.247 -4.98 -11.936 -6.903 0 0 Z " fill="#020202" transform="translate(313.91796875,138.5859375)"/>
<path d="M0 0 C7.36 4.068 13.673 9.154 17.469 16.746 C-8.271 16.746 -34.011 16.746 -60.531 16.746 C-47.188 -3.269 -22.132 -10.963 0 0 Z " fill="#F8616C" transform="translate(371.53125,68.25390625)"/>
<path d="M0 0 C9.446 2.358 16.765 8.419 21.926 16.574 C24.307 20.871 25.953 24.755 26.551 29.637 C26.656 30.445 26.762 31.253 26.871 32.086 C27.482 41.187 24.084 49.36 19.062 56.859 C16.573 59.698 14.685 60.611 10.988 61.324 C6.659 60.458 5.145 59.174 2.551 55.637 C1.926 53.262 1.926 53.262 2.551 50.637 C3.712 48.784 4.983 47.061 6.305 45.32 C9.656 40.792 10.223 36.155 9.551 30.637 C7.871 25.422 5.864 22.032 1.551 18.637 C-0.12 17.929 -1.81 17.265 -3.512 16.637 C-7.745 15.066 -10.234 13.765 -12.449 9.637 C-13.012 7.137 -13.012 7.137 -12.449 4.637 C-8.962 -0.711 -5.874 -0.949 0 0 Z " fill="#030202" transform="translate(173.44921875,371.36328125)"/>
<path d="M0 0 C2.062 1.625 2.062 1.625 3 4 C2.933 7.732 2.582 10.127 0.5 13.25 C-1.937 14.956 -3.56 15.521 -6.375 16.312 C-11.496 17.834 -14.063 20.647 -17 25 C-19.35 29.7 -18.786 36.616 -17.176 41.5 C-15.76 44.364 -14.263 46.737 -12 49 C-11.511 52.666 -11.78 54.579 -13.5 57.875 C-16.32 60.272 -18.262 60.861 -21.977 60.605 C-25.961 59.413 -27.895 56.424 -30 53 C-35.231 43.04 -36.769 32.834 -33.938 21.75 C-30.6 12.218 -23.605 5.915 -15 1 C-9.573 -1.246 -5.625 -1.312 0 0 Z " fill="#020101" transform="translate(111,372)"/>
<path d="M0 0 C0.33 0 0.66 0 1 0 C1 39.93 1 79.86 1 121 C40.255 120.851 40.255 120.851 79.51 120.693 C84.795 120.671 90.081 120.649 95.366 120.628 C96.36 120.624 96.36 120.624 97.374 120.619 C107.417 120.578 117.46 120.54 127.503 120.503 C139.152 120.46 150.801 120.414 162.45 120.363 C168.622 120.336 174.794 120.312 180.966 120.291 C186.768 120.271 192.57 120.247 198.372 120.22 C200.508 120.21 202.645 120.202 204.781 120.197 C207.684 120.188 210.587 120.174 213.49 120.158 C214.347 120.157 215.204 120.156 216.087 120.155 C219.849 120.492 219.849 120.492 223 119 C223.108 117.457 223.147 115.909 223.158 114.362 C223.168 113.359 223.178 112.357 223.188 111.324 C223.194 110.215 223.199 109.105 223.205 107.963 C223.215 106.802 223.225 105.641 223.235 104.445 C223.267 100.587 223.292 96.729 223.316 92.871 C223.337 90.205 223.358 87.538 223.379 84.871 C223.429 78.557 223.474 72.242 223.517 65.927 C223.567 58.74 223.622 51.553 223.677 44.366 C223.791 29.577 223.898 14.789 224 0 C224.66 0 225.32 0 226 0 C226 40.92 226 81.84 226 124 C151.42 124 76.84 124 0 124 C0 83.08 0 42.16 0 0 Z " fill="#747C87" transform="translate(237,101)"/>
<path d="M0 0 C3.395 2.051 4.803 3.705 7 7 C7.789 10.914 7.737 14.487 5.973 18.109 C3.309 21.68 0.925 23.431 -3.5 24.188 C-8.058 24.349 -10.583 23.092 -14 20 C-16.409 17.029 -16.965 15.325 -17.375 11.5 C-16.887 6.943 -15.602 4.436 -12.199 1.387 C-8.379 -1.022 -4.361 -0.65 0 0 Z " fill="#69EDBC" transform="translate(304,151)"/>
<path d="M0 0 C3.287 2.465 5.69 5.071 7 9 C7.508 12.896 7.167 14.684 5.312 18.188 C2.892 21.132 1.559 22.655 -2 24 C-6.092 24.386 -9.479 24.049 -12.914 21.68 C-15.979 18.556 -17.405 15.827 -17.688 11.438 C-17.362 6.56 -15.481 4.315 -12 1 C-8.281 -0.86 -4.05 -0.574 0 0 Z " fill="#69EDBC" transform="translate(406,151)"/>
<path d="M0 0 C2.31 0 4.62 0 7 0 C9.367 2.367 9.252 2.824 9.259 6.035 C9.265 6.866 9.271 7.697 9.278 8.553 C9.274 9.452 9.27 10.351 9.266 11.277 C9.268 12.2 9.269 13.122 9.271 14.072 C9.273 16.025 9.269 17.978 9.261 19.93 C9.25 22.922 9.261 25.913 9.273 28.904 C9.272 30.799 9.27 32.695 9.266 34.59 C9.27 35.487 9.274 36.384 9.278 37.308 C9.272 38.142 9.265 38.976 9.259 39.836 C9.256 40.936 9.256 40.936 9.254 42.058 C9 44 9 44 7 47 C4.69 47 2.38 47 0 47 C0 31.49 0 15.98 0 0 Z " fill="#9A9CA8" transform="translate(479,137)"/>
<path d="M0 0 C2.31 0 4.62 0 7 0 C7 15.51 7 31.02 7 47 C4.69 47 2.38 47 0 47 C-2.029 43.956 -2.251 43.361 -2.259 39.943 C-2.265 39.132 -2.271 38.321 -2.278 37.486 C-2.274 36.614 -2.27 35.742 -2.266 34.844 C-2.268 33.945 -2.269 33.046 -2.271 32.12 C-2.273 30.221 -2.269 28.321 -2.261 26.421 C-2.25 23.511 -2.261 20.602 -2.273 17.691 C-2.272 15.846 -2.27 14.001 -2.266 12.156 C-2.27 11.284 -2.274 10.412 -2.278 9.514 C-2.272 8.703 -2.265 7.892 -2.259 7.057 C-2.257 6.344 -2.256 5.631 -2.254 4.897 C-2 3 -2 3 0 0 Z " fill="#A09EA9" transform="translate(214,137)"/>
<path d="M0 0 C1.32 0 2.64 0 4 0 C4 15.51 4 31.02 4 47 C2.68 47 1.36 47 0 47 C0 31.49 0 15.98 0 0 Z " fill="#797883" transform="translate(217,137)"/>
<path d="M0 0 C0.99 0 1.98 0 3 0 C3 15.51 3 31.02 3 47 C2.01 47 1.02 47 0 47 C0 31.49 0 15.98 0 0 Z " fill="#797883" transform="translate(479,137)"/>
</svg>