
<!-- Generator: visioncortex VTracer 0.6.4 -->
<svg version="1.1" xmlns="http://www.w3.org/2000/svg" viewBox="0 0 512 512" preserveAspectRatio="xMidYMid meet">
<path d="M0 0 C1.574 0.822 3.135 1.669 4.684 2.539 C5.539 2.993 6.395 3.447 7.277 3.915 C9.047 4.857 10.812 5.808 12.57 6.771 C15.669 8.463 18.796 10.099 21.926 11.733 C24.246 12.947 26.561 14.172 28.875 15.398 C35.104 18.692 41.363 21.926 47.621 25.164 C62.476 32.855 62.476 32.855 68.347 35.967 C69.856 36.759 71.371 37.54 72.894 38.304 C77.077 40.429 80.919 42.683 84.712 45.448 C105.249 59.394 128.861 56.809 152.669 56.404 C159.578 56.299 166.487 56.281 173.396 56.255 C178.764 56.234 184.129 56.199 189.496 56.118 C190.48 56.107 191.464 56.096 192.478 56.084 C194.297 56.063 196.115 56.035 197.933 55.996 C207.656 55.906 214.866 57.512 222.121 64.164 C227.643 69.6 230.24 75.12 230.49 82.789 C230.503 85.054 230.499 87.32 230.482 89.585 C230.484 90.836 230.487 92.088 230.49 93.377 C230.496 96.839 230.484 100.3 230.469 103.762 C230.456 107.5 230.461 111.237 230.463 114.975 C230.465 121.446 230.455 127.917 230.438 134.389 C230.414 143.746 230.406 153.102 230.402 162.459 C230.396 177.64 230.376 192.821 230.347 208.002 C230.32 222.748 230.299 237.493 230.286 252.239 C230.285 253.148 230.284 254.057 230.284 254.994 C230.28 259.555 230.276 264.116 230.272 268.677 C230.241 306.506 230.188 344.335 230.121 382.164 C232.137 382.388 234.154 382.612 236.17 382.836 C239.876 383.459 241.528 385.571 244.121 388.164 C246.027 391.977 245.393 396.594 245.434 400.789 C245.463 401.762 245.492 402.736 245.521 403.738 C245.587 411.182 244.288 416.495 239.375 422.188 C238.817 422.634 238.259 423.08 237.684 423.539 C237.128 424.001 236.572 424.462 236 424.938 C230.779 428.346 226.074 428.471 220.023 428.465 C219.152 428.469 218.281 428.473 217.383 428.478 C215.547 428.484 213.71 428.484 211.874 428.48 C209.065 428.477 206.256 428.5 203.447 428.525 C201.66 428.528 199.873 428.528 198.086 428.527 C196.828 428.541 196.828 428.541 195.545 428.555 C192.053 428.528 189.74 428.495 186.623 426.829 C185.121 425.164 185.121 425.164 184.121 422.164 C177.851 421.834 171.581 421.504 165.121 421.164 C164.791 422.814 164.461 424.464 164.121 426.164 C160.456 428.607 158.711 428.416 154.34 428.421 C153.643 428.425 152.947 428.428 152.229 428.432 C149.877 428.441 147.525 428.436 145.173 428.431 C143.477 428.435 141.78 428.44 140.084 428.445 C135.409 428.457 130.734 428.457 126.058 428.455 C121.021 428.454 115.985 428.465 110.948 428.475 C101.073 428.492 91.199 428.497 81.325 428.498 C73.299 428.499 65.274 428.503 57.249 428.51 C34.508 428.527 11.767 428.536 -10.973 428.535 C-12.814 428.535 -12.814 428.535 -14.691 428.535 C-15.92 428.535 -17.148 428.535 -18.413 428.534 C-38.318 428.534 -58.223 428.553 -78.128 428.581 C-98.554 428.61 -118.98 428.623 -139.407 428.622 C-150.879 428.621 -162.352 428.627 -173.824 428.648 C-183.593 428.666 -193.362 428.671 -203.131 428.657 C-208.117 428.651 -213.102 428.65 -218.087 428.668 C-222.651 428.683 -227.215 428.681 -231.779 428.663 C-233.43 428.66 -235.081 428.664 -236.731 428.675 C-253.529 428.781 -253.529 428.781 -260.902 422.418 C-261.348 421.86 -261.794 421.302 -262.254 420.727 C-262.715 420.171 -263.177 419.615 -263.652 419.043 C-267.376 413.339 -267.277 407.819 -267.316 401.227 C-267.366 399.762 -267.366 399.762 -267.416 398.268 C-267.476 390.228 -267.476 390.228 -264.543 386.559 C-260.456 382.885 -257.305 382.164 -251.879 382.164 C-251.881 381.522 -251.883 380.881 -251.885 380.22 C-251.997 342.183 -252.082 304.146 -252.134 266.109 C-252.14 261.541 -252.147 256.972 -252.154 252.403 C-252.156 251.039 -252.156 251.039 -252.158 249.647 C-252.179 234.926 -252.219 220.206 -252.265 205.485 C-252.311 190.377 -252.339 175.268 -252.349 160.16 C-252.356 150.84 -252.378 141.519 -252.418 132.199 C-252.445 125.805 -252.453 119.411 -252.446 113.017 C-252.443 109.33 -252.448 105.643 -252.475 101.956 C-252.504 97.952 -252.494 93.949 -252.48 89.946 C-252.495 88.788 -252.509 87.63 -252.524 86.438 C-252.444 77.728 -250.317 71.167 -244.598 64.508 C-243.865 63.899 -243.133 63.291 -242.379 62.664 C-241.647 62.035 -240.915 61.406 -240.16 60.758 C-233.217 55.907 -225.511 56.027 -217.367 56.133 C-215.417 56.149 -213.467 56.165 -211.517 56.18 C-210.487 56.19 -209.458 56.2 -208.397 56.209 C-201.735 56.261 -195.073 56.255 -188.411 56.261 C-182.585 56.269 -176.76 56.296 -170.934 56.366 C-165.272 56.433 -159.613 56.444 -153.951 56.421 C-151.814 56.422 -149.677 56.441 -147.541 56.482 C-131.849 56.764 -120.856 53.486 -107.306 45.567 C-103.501 43.368 -99.595 41.368 -95.691 39.352 C-94.145 38.534 -92.599 37.715 -91.055 36.895 C-84.85 33.611 -78.613 30.39 -72.379 27.164 C-65.374 23.538 -58.37 19.911 -51.393 16.232 C-49.895 15.443 -48.395 14.657 -46.894 13.874 C-42.564 11.61 -38.283 9.276 -34.023 6.883 C-33.013 6.327 -32.003 5.772 -30.962 5.2 C-29.011 4.127 -27.071 3.036 -25.144 1.921 C-16.849 -2.588 -8.857 -3.893 0 0 Z " fill="#010102" transform="translate(266.87890625,42.8359375)"/>
<path d="M0 0 C26.4 0 52.8 0 80 0 C80.312 28 80.312 28 80.388 36.797 C80.42 39.115 80.454 41.432 80.488 43.75 C80.495 44.94 80.501 46.13 80.507 47.355 C80.621 53.967 81.254 58.973 84 65 C84.33 65.99 84.66 66.98 85 68 C86.679 69.03 86.679 69.03 89 70 C90.186 70.62 91.368 71.248 92.547 71.883 C99.409 75.545 106.278 79.176 113.25 82.625 C129.899 90.873 146.359 99.525 162.787 108.205 C169.986 112.004 177.211 115.754 184.438 119.5 C185.035 119.81 185.633 120.12 186.249 120.439 C191.621 123.225 191.621 123.225 197 126 C197.709 126.392 198.419 126.785 199.15 127.189 C202.307 128.573 204.706 127.776 208 127 C210.861 125.797 213.541 124.323 216.25 122.812 C217.932 121.901 219.614 120.991 221.297 120.082 C222.206 119.588 223.116 119.094 224.053 118.584 C229.5 115.656 235.004 112.836 240.5 110 C248.923 105.641 257.333 101.261 265.717 96.828 C271.468 93.792 277.244 90.806 283.025 87.826 C288.692 84.901 294.349 81.956 300 79 C300.951 78.504 301.902 78.007 302.881 77.496 C305.388 76.179 307.883 74.844 310.375 73.5 C311.087 73.127 311.8 72.755 312.533 72.371 C317.985 69.385 321.764 66.131 324.114 60.176 C325 57.001 325.275 54.374 325.319 51.086 C325.339 49.93 325.359 48.773 325.38 47.582 C325.397 45.782 325.397 45.782 325.414 43.945 C325.441 42.274 325.441 42.274 325.468 40.568 C325.53 36.421 325.577 32.273 325.625 28.125 C325.749 18.844 325.873 9.562 326 0 C350.09 0 374.18 0 399 0 C399 67.98 399 135.96 399 206 C269.64 206 140.28 206 7 206 C6.67 145.94 6.34 85.88 6 24 C4.02 22.68 2.04 21.36 0 20 C0 13.4 0 6.8 0 0 Z " fill="#FEFEFE" transform="translate(53,190)"/>
<path d="M0 0 C0.927 -0 1.854 -0 2.809 -0 C5.877 0 8.945 0.008 12.013 0.016 C14.139 0.018 16.264 0.019 18.39 0.02 C23.988 0.024 29.585 0.034 35.183 0.045 C40.894 0.055 46.605 0.06 52.316 0.065 C63.523 0.075 74.731 0.092 85.939 0.114 C85.939 5.064 85.939 10.014 85.939 15.114 C82.297 15.128 82.297 15.128 78.583 15.142 C70.56 15.176 62.537 15.231 54.515 15.297 C49.651 15.337 44.787 15.369 39.923 15.385 C35.228 15.4 30.534 15.434 25.84 15.482 C24.049 15.497 22.259 15.505 20.468 15.505 C17.959 15.508 15.451 15.535 12.942 15.568 C12.202 15.563 11.463 15.558 10.701 15.552 C7.172 15.624 5.087 16.022 2.064 17.898 C-1.295 21.401 -2.306 23.903 -2.352 28.727 C-2.365 29.635 -2.377 30.542 -2.39 31.478 C-2.393 32.451 -2.395 33.424 -2.397 34.426 C-2.404 35.432 -2.411 36.438 -2.417 37.474 C-2.428 39.599 -2.432 41.724 -2.432 43.849 C-2.436 47.102 -2.473 50.353 -2.51 53.606 C-2.516 55.671 -2.52 57.736 -2.522 59.801 C-2.537 60.774 -2.551 61.747 -2.566 62.75 C-2.593 68.074 -2.593 68.074 -0.22 72.696 C1.971 74.267 1.971 74.267 4.939 75.114 C4.939 81.714 4.939 88.314 4.939 95.114 C2.464 96.104 2.464 96.104 -0.061 97.114 C-2.509 99.561 -2.304 100.897 -2.333 104.238 C-2.33 104.956 -2.326 105.673 -2.322 106.413 C-2.326 107.174 -2.33 107.935 -2.334 108.719 C-2.344 111.283 -2.34 113.847 -2.336 116.411 C-2.34 118.244 -2.345 120.077 -2.351 121.91 C-2.365 126.9 -2.365 131.89 -2.363 136.879 C-2.362 141.042 -2.367 145.204 -2.371 149.367 C-2.383 159.188 -2.383 169.009 -2.377 178.83 C-2.371 188.965 -2.383 199.099 -2.405 209.234 C-2.422 217.93 -2.428 226.626 -2.425 235.321 C-2.423 240.517 -2.426 245.713 -2.44 250.909 C-2.452 255.797 -2.45 260.686 -2.437 265.574 C-2.435 267.368 -2.438 269.162 -2.446 270.956 C-2.456 273.406 -2.448 275.856 -2.436 278.306 C-2.443 279.015 -2.45 279.724 -2.458 280.454 C-2.408 285.068 -1.616 288.259 0.939 292.114 C4.93 295.124 7.89 295.489 12.831 295.491 C13.515 295.495 14.2 295.5 14.905 295.504 C17.203 295.515 19.501 295.505 21.799 295.494 C23.461 295.498 25.124 295.503 26.786 295.509 C31.358 295.521 35.93 295.515 40.502 295.506 C45.431 295.499 50.36 295.509 55.289 295.518 C64.948 295.531 74.606 295.528 84.264 295.519 C92.112 295.513 99.96 295.512 107.809 295.515 C108.925 295.515 110.041 295.516 111.191 295.516 C113.458 295.517 115.725 295.518 117.992 295.519 C139.263 295.528 160.534 295.518 181.805 295.502 C200.064 295.488 218.322 295.491 236.581 295.505 C257.773 295.521 278.965 295.527 300.157 295.518 C302.416 295.517 304.676 295.516 306.935 295.515 C308.602 295.514 308.602 295.514 310.303 295.514 C318.143 295.511 325.983 295.515 333.823 295.522 C343.376 295.531 352.929 295.529 362.482 295.513 C367.357 295.505 372.233 295.502 377.108 295.512 C381.57 295.52 386.031 295.516 390.493 295.5 C392.109 295.496 393.724 295.498 395.34 295.505 C397.534 295.514 399.727 295.505 401.921 295.491 C403.14 295.491 404.359 295.49 405.615 295.49 C410.233 294.967 413.642 293.536 416.79 290.083 C418.522 285.607 418.351 281.366 418.32 276.606 C418.324 275.536 418.329 274.466 418.334 273.364 C418.346 269.773 418.336 266.182 418.327 262.59 C418.331 260.018 418.336 257.446 418.343 254.874 C418.356 248.608 418.353 242.343 418.345 236.078 C418.338 230.986 418.337 225.893 418.34 220.801 C418.341 220.076 418.341 219.352 418.342 218.605 C418.343 217.133 418.343 215.66 418.344 214.188 C418.353 200.381 418.343 186.574 418.327 172.766 C418.314 160.921 418.316 149.075 418.33 137.23 C418.346 123.474 418.352 109.718 418.343 95.961 C418.342 94.494 418.341 93.027 418.34 91.56 C418.339 90.477 418.339 90.477 418.339 89.372 C418.336 84.287 418.341 79.202 418.348 74.116 C418.357 67.27 418.35 60.424 418.333 53.578 C418.329 51.063 418.33 48.549 418.337 46.034 C418.345 42.605 418.335 39.177 418.32 35.748 C418.326 34.749 418.333 33.751 418.34 32.722 C418.286 26.407 417.602 21.777 412.939 17.114 C409.183 15.714 405.188 15.94 401.233 15.908 C400.462 15.898 399.69 15.888 398.896 15.878 C396.353 15.847 393.81 15.822 391.267 15.797 C389.501 15.777 387.736 15.756 385.97 15.734 C381.328 15.679 376.685 15.63 372.043 15.581 C367.304 15.531 362.564 15.475 357.825 15.42 C348.53 15.313 339.234 15.212 329.939 15.114 C329.939 10.164 329.939 5.214 329.939 0.114 C342.239 0.044 354.539 -0.009 366.839 -0.042 C372.55 -0.058 378.262 -0.079 383.973 -0.113 C389.484 -0.145 394.996 -0.163 400.507 -0.171 C402.61 -0.177 404.713 -0.187 406.816 -0.204 C409.761 -0.225 412.706 -0.228 415.65 -0.227 C416.521 -0.238 417.391 -0.249 418.288 -0.26 C424.347 -0.229 427.439 0.91 432.044 4.969 C434.993 9.864 434.476 14.608 434.42 20.218 C434.423 21.456 434.427 22.695 434.43 23.971 C434.436 27.413 434.423 30.855 434.403 34.297 C434.386 38.064 434.391 41.831 434.394 45.599 C434.396 52.912 434.378 60.226 434.352 67.54 C434.323 75.999 434.32 84.458 434.317 92.918 C434.296 115.254 434.24 137.59 434.189 159.926 C434.106 209.818 434.024 259.71 433.939 311.114 C284.779 311.114 135.619 311.114 -18.061 311.114 C-18.123 261.387 -18.185 211.66 -18.249 160.426 C-18.29 136.845 -18.29 136.845 -18.332 112.787 C-18.345 93.639 -18.345 93.639 -18.348 84.685 C-18.35 78.41 -18.361 72.136 -18.378 65.861 C-18.397 58.628 -18.406 51.396 -18.402 44.164 C-18.4 40.462 -18.403 36.76 -18.419 33.059 C-18.436 29.099 -18.43 25.14 -18.422 21.18 C-18.431 20.02 -18.44 18.86 -18.449 17.664 C-18.443 16.602 -18.437 15.54 -18.43 14.445 C-18.432 13.53 -18.433 12.614 -18.434 11.671 C-17.802 7.331 -15.403 3.898 -12.061 1.114 C-8.045 -0.225 -4.187 -0.017 0 0 Z " fill="#BC847F" transform="translate(48.061279296875,114.886474609375)"/>
<path d="M0 0 C0 41.91 0 83.82 0 127 C-12.753 133.956 -25.451 140.87 -38.387 147.454 C-42.377 149.485 -46.362 151.526 -50.348 153.566 C-51.115 153.959 -51.881 154.351 -52.671 154.755 C-58.341 157.656 -63.994 160.588 -69.625 163.562 C-70.327 163.933 -71.029 164.304 -71.752 164.686 C-74.695 166.242 -77.633 167.804 -80.57 169.372 C-82.363 170.329 -84.158 171.284 -85.953 172.238 C-87.65 173.14 -89.346 174.046 -91.04 174.955 C-91.791 175.354 -92.542 175.753 -93.316 176.164 C-93.981 176.519 -94.646 176.875 -95.33 177.241 C-97 178 -97 178 -99 178 C-99.234 161.676 -99.41 145.352 -99.518 129.026 C-99.57 121.445 -99.64 113.866 -99.754 106.286 C-99.854 99.678 -99.919 93.071 -99.941 86.463 C-99.954 82.964 -99.984 79.467 -100.057 75.969 C-100.138 72.061 -100.14 68.156 -100.135 64.248 C-100.171 63.091 -100.207 61.934 -100.244 60.743 C-100.203 57.528 -100.077 55.031 -99 52 C-95.978 49.203 -92.76 47.611 -89 46 C-87.907 45.403 -86.814 44.807 -85.688 44.192 C-84.73 43.701 -83.772 43.209 -82.785 42.703 C-81.154 41.863 -81.154 41.863 -79.491 41.005 C-77.794 40.136 -77.794 40.136 -76.062 39.25 C-74.24 38.312 -72.417 37.373 -70.595 36.433 C-68.806 35.511 -67.016 34.589 -65.226 33.667 C-61.178 31.575 -57.15 29.448 -53.125 27.312 C-46.704 23.911 -40.248 20.58 -33.781 17.266 C-32.953 16.841 -32.125 16.416 -31.271 15.979 C-27.059 13.82 -22.845 11.664 -18.629 9.511 C-17.058 8.707 -15.486 7.902 -13.914 7.098 C-12.829 6.545 -12.829 6.545 -11.723 5.981 C-0.048 0 -0.048 0 0 0 Z " fill="#020202" transform="translate(363,120)"/>
<path d="M0 0 C3.451 1.105 6.738 2.244 9.96 3.904 C10.679 4.272 11.398 4.64 12.139 5.019 C12.901 5.415 13.664 5.811 14.449 6.219 C15.261 6.636 16.073 7.053 16.91 7.484 C19.505 8.818 22.096 10.159 24.688 11.5 C26.378 12.37 28.069 13.24 29.76 14.109 C38.929 18.83 48.068 23.605 57.189 28.418 C62.108 31.012 67.04 33.579 71.988 36.117 C72.604 36.433 73.219 36.749 73.853 37.075 C76.301 38.332 78.75 39.588 81.201 40.839 C83.048 41.783 84.894 42.731 86.738 43.68 C88.332 44.495 88.332 44.495 89.958 45.328 C90.962 45.88 91.966 46.431 93 47 C94.039 47.447 95.077 47.893 96.148 48.353 C99.426 51.395 99.456 51.996 99.722 56.264 C99.739 58.516 99.723 60.769 99.681 63.021 C99.682 64.865 99.682 64.865 99.684 66.746 C99.68 70.115 99.65 73.481 99.608 76.849 C99.571 80.369 99.567 83.89 99.56 87.411 C99.542 94.076 99.492 100.741 99.432 107.406 C99.365 114.995 99.332 122.584 99.302 130.173 C99.239 145.782 99.134 161.391 99 177 C95.212 175.765 91.714 174.466 88.191 172.602 C86.842 171.892 86.842 171.892 85.465 171.168 C84.028 170.404 84.028 170.404 82.562 169.625 C80.491 168.534 78.419 167.443 76.348 166.352 C75.292 165.794 74.236 165.236 73.149 164.661 C68.275 162.09 63.387 159.546 58.5 157 C56.583 156 54.667 155 52.75 154 C51.801 153.505 50.852 153.01 49.875 152.5 C47 151 44.125 149.5 41.25 148 C39.824 147.256 39.824 147.256 38.37 146.497 C36.471 145.507 34.572 144.515 32.673 143.524 C27.611 140.881 22.545 138.244 17.477 135.613 C16.414 135.061 15.351 134.509 14.256 133.939 C12.203 132.873 10.15 131.808 8.096 130.744 C7.18 130.268 6.264 129.792 5.32 129.301 C4.508 128.88 3.696 128.459 2.86 128.025 C1 127 1 127 0 126 C-0.096 124.368 -0.122 122.731 -0.12 121.096 C-0.122 120.035 -0.123 118.973 -0.124 117.879 C-0.121 116.705 -0.117 115.53 -0.114 114.32 C-0.114 113.091 -0.114 111.862 -0.114 110.596 C-0.113 107.216 -0.108 103.836 -0.101 100.456 C-0.095 96.927 -0.095 93.398 -0.093 89.869 C-0.09 83.183 -0.082 76.496 -0.072 69.81 C-0.061 62.199 -0.055 54.589 -0.05 46.978 C-0.04 31.319 -0.022 15.659 0 0 Z " fill="#020507" transform="translate(149,121)"/>
<path d="M0 0 C3.223 1.285 6.239 2.848 9.262 4.539 C10.619 5.28 11.977 6.02 13.336 6.758 C14.026 7.133 14.716 7.508 15.427 7.895 C18.443 9.509 21.506 11.027 24.574 12.539 C37.291 18.837 49.86 25.43 62.449 31.977 C63.41 32.475 64.37 32.974 65.359 33.488 C76.175 39.114 86.862 44.931 97.449 50.977 C95.334 53.269 93.326 54.741 90.562 56.176 C89.798 56.576 89.034 56.975 88.247 57.387 C87.427 57.809 86.607 58.23 85.762 58.664 C84.474 59.334 84.474 59.334 83.16 60.017 C77.537 62.93 71.882 65.777 66.208 68.589 C50.63 76.336 35.226 84.45 19.824 92.539 C19.068 92.934 18.312 93.328 17.533 93.735 C12.499 96.376 7.59 99.186 2.773 102.211 C-1.116 103.492 -3.829 101.813 -7.374 100.091 C-9.513 99 -11.626 97.868 -13.738 96.727 C-15.429 95.825 -17.121 94.924 -18.812 94.023 C-19.728 93.536 -20.644 93.048 -21.587 92.545 C-27.055 89.651 -32.555 86.818 -38.051 83.977 C-46.46 79.624 -54.855 75.249 -63.228 70.827 C-74.634 64.811 -86.098 58.903 -97.551 52.977 C-97.551 51.987 -97.551 50.997 -97.551 49.977 C-96.711 49.544 -95.872 49.112 -95.007 48.667 C-74.782 38.262 -74.782 38.262 -54.636 27.706 C-50.114 25.315 -45.578 22.953 -41.031 20.609 C-39.877 20.014 -38.724 19.419 -37.535 18.805 C-35.189 17.596 -32.843 16.388 -30.497 15.181 C-25.277 12.483 -20.093 9.754 -15 6.824 C-14.175 6.35 -13.35 5.877 -12.5 5.389 C-10.998 4.517 -9.503 3.632 -8.017 2.732 C-5.279 1.139 -3.214 -0.03 0 0 Z " fill="#FA989F" transform="translate(256.55078125,56.0234375)"/>
<path d="M0 0 C159.06 0 318.12 0 482 0 C482 10.444 482 10.444 479 14 C475.349 15.217 471.959 15.173 468.156 15.211 C466.585 15.239 465.013 15.268 463.441 15.297 C460.966 15.338 458.491 15.375 456.015 15.401 C453.624 15.429 451.234 15.475 448.844 15.523 C448.103 15.527 447.362 15.53 446.599 15.533 C442.613 15.623 442.613 15.623 439.072 17.28 C437.718 19.255 437.718 19.255 437 23 C430.4 23 423.8 23 417 23 C416.01 21.02 415.02 19.04 414 17 C411.115 15.558 408.637 15.875 405.412 15.875 C404.724 15.874 404.036 15.873 403.327 15.871 C400.998 15.868 398.67 15.872 396.342 15.875 C394.665 15.874 392.988 15.873 391.311 15.871 C387.653 15.868 383.995 15.868 380.337 15.871 C374.386 15.875 368.436 15.872 362.485 15.868 C354.967 15.864 347.449 15.862 339.931 15.862 C325.16 15.862 310.389 15.849 295.619 15.832 C293.295 15.83 290.972 15.827 288.649 15.825 C285.128 15.821 281.607 15.817 278.086 15.813 C264.802 15.798 251.518 15.784 238.235 15.772 C237.02 15.771 235.805 15.77 234.554 15.769 C214.863 15.751 195.173 15.748 175.483 15.75 C155.284 15.751 135.085 15.733 114.886 15.699 C102.417 15.678 89.949 15.673 77.481 15.687 C68.94 15.696 60.399 15.686 51.857 15.662 C46.925 15.648 41.993 15.643 37.061 15.66 C32.549 15.675 28.037 15.667 23.525 15.641 C21.889 15.635 20.254 15.638 18.619 15.651 C16.4 15.666 14.184 15.651 11.966 15.628 C10.733 15.627 9.499 15.627 8.228 15.626 C5 15 5 15 2.065 13.086 C0 10 0 10 0 0 Z " fill="#FCFCFD" transform="translate(15,441)"/>
<path d="M0 0 C12.3 -0.069 24.6 -0.123 36.9 -0.155 C42.612 -0.171 48.323 -0.192 54.034 -0.226 C59.546 -0.259 65.057 -0.277 70.568 -0.285 C72.671 -0.29 74.775 -0.301 76.878 -0.317 C79.823 -0.339 82.767 -0.342 85.712 -0.341 C86.582 -0.351 87.452 -0.362 88.349 -0.373 C94.409 -0.342 97.5 0.797 102.106 4.855 C105.055 9.751 104.537 14.494 104.481 20.104 C104.484 21.343 104.488 22.582 104.491 23.858 C104.497 27.3 104.484 30.741 104.464 34.183 C104.447 37.951 104.453 41.718 104.456 45.485 C104.458 52.799 104.439 60.113 104.414 67.426 C104.385 75.886 104.382 84.345 104.378 92.804 C104.357 115.14 104.302 137.476 104.25 159.812 C104.168 209.704 104.085 259.596 104 311 C-45.16 311 -194.32 311 -348 311 C-348 310.67 -348 310.34 -348 310 C-206.43 310 -64.86 310 81 310 C81 305.38 81 300.76 81 296 C80.34 295.67 79.68 295.34 79 295 C79.928 294.608 80.856 294.216 81.812 293.812 C85.49 291.721 86.327 290.844 88 287 C88.438 283.497 88.405 280.019 88.381 276.493 C88.386 275.423 88.39 274.353 88.395 273.25 C88.407 269.659 88.398 266.068 88.388 262.477 C88.392 259.905 88.398 257.332 88.404 254.76 C88.417 248.495 88.415 242.23 88.406 235.965 C88.399 230.872 88.398 225.78 88.401 220.688 C88.402 219.963 88.402 219.238 88.403 218.491 C88.404 217.019 88.405 215.547 88.406 214.075 C88.414 200.267 88.404 186.46 88.388 172.653 C88.375 160.807 88.377 148.962 88.391 137.116 C88.407 123.36 88.413 109.604 88.404 95.848 C88.403 94.381 88.402 92.913 88.401 91.446 C88.401 90.363 88.401 90.363 88.4 89.259 C88.397 84.173 88.402 79.088 88.409 74.003 C88.418 67.157 88.412 60.311 88.394 53.464 C88.39 50.95 88.391 48.435 88.398 45.92 C88.406 42.491 88.396 39.063 88.381 35.634 C88.388 34.636 88.394 33.637 88.401 32.609 C88.348 26.293 87.663 21.663 83 17 C79.244 15.601 75.25 15.826 71.294 15.795 C70.523 15.785 69.752 15.775 68.957 15.765 C66.414 15.733 63.871 15.708 61.328 15.684 C59.563 15.663 57.797 15.642 56.032 15.621 C51.389 15.565 46.747 15.516 42.104 15.468 C37.365 15.418 32.626 15.362 27.887 15.307 C18.591 15.199 9.296 15.098 0 15 C0 10.05 0 5.1 0 0 Z " fill="#A3746D" transform="translate(378,115)"/>
<path d="M0 0 C0 41.91 0 83.82 0 127 C-12.753 133.956 -25.451 140.87 -38.387 147.454 C-42.377 149.485 -46.362 151.526 -50.348 153.566 C-51.115 153.959 -51.881 154.351 -52.671 154.755 C-58.341 157.656 -63.994 160.588 -69.625 163.562 C-70.327 163.933 -71.029 164.304 -71.752 164.686 C-74.695 166.242 -77.633 167.804 -80.57 169.372 C-82.363 170.329 -84.158 171.284 -85.953 172.238 C-87.65 173.14 -89.346 174.046 -91.04 174.955 C-91.791 175.354 -92.542 175.753 -93.316 176.164 C-93.981 176.519 -94.646 176.875 -95.33 177.241 C-97 178 -97 178 -99 178 C-99.234 161.676 -99.41 145.352 -99.518 129.026 C-99.57 121.445 -99.64 113.866 -99.754 106.286 C-99.854 99.678 -99.919 93.071 -99.941 86.463 C-99.954 82.964 -99.984 79.467 -100.057 75.969 C-100.138 72.061 -100.14 68.156 -100.135 64.248 C-100.171 63.091 -100.207 61.934 -100.244 60.743 C-100.203 57.528 -100.077 55.031 -99 52 C-95.978 49.203 -92.76 47.611 -89 46 C-87.907 45.403 -86.814 44.807 -85.688 44.192 C-84.73 43.701 -83.772 43.209 -82.785 42.703 C-81.154 41.863 -81.154 41.863 -79.491 41.005 C-77.794 40.136 -77.794 40.136 -76.062 39.25 C-74.24 38.312 -72.417 37.373 -70.595 36.433 C-68.806 35.511 -67.016 34.589 -65.226 33.667 C-61.178 31.575 -57.15 29.448 -53.125 27.312 C-46.704 23.911 -40.248 20.58 -33.781 17.266 C-32.953 16.841 -32.125 16.416 -31.271 15.979 C-27.059 13.82 -22.845 11.664 -18.629 9.511 C-17.058 8.707 -15.486 7.902 -13.914 7.098 C-12.829 6.545 -12.829 6.545 -11.723 5.981 C-0.048 0 -0.048 0 0 0 Z M-33.691 31.078 C-34.311 31.401 -34.93 31.724 -35.568 32.057 C-37.574 33.107 -39.568 34.178 -41.562 35.25 C-42.946 35.981 -44.33 36.711 -45.714 37.44 C-49.17 39.265 -52.616 41.108 -56.058 42.958 C-57.886 43.939 -59.716 44.914 -61.548 45.887 C-64.62 47.52 -67.687 49.163 -70.75 50.812 C-71.653 51.297 -72.556 51.781 -73.487 52.28 C-74.311 52.73 -75.135 53.181 -75.984 53.645 C-76.693 54.03 -77.402 54.415 -78.132 54.812 C-81.527 56.971 -83.534 59.249 -85 63 C-85.195 65.609 -85.284 68.11 -85.275 70.719 C-85.28 71.491 -85.285 72.264 -85.29 73.06 C-85.304 75.612 -85.303 78.163 -85.301 80.715 C-85.305 82.491 -85.309 84.267 -85.314 86.043 C-85.321 89.764 -85.321 93.485 -85.316 97.207 C-85.31 101.973 -85.327 106.738 -85.35 111.504 C-85.365 115.172 -85.366 118.839 -85.363 122.507 C-85.363 124.264 -85.368 126.021 -85.378 127.778 C-85.391 130.236 -85.384 132.694 -85.372 135.152 C-85.38 135.876 -85.388 136.6 -85.395 137.345 C-85.35 141.744 -84.671 144.488 -82 148 C-79.118 150.402 -77.577 150.989 -73.812 151.062 C-69.593 149.887 -66.635 148.117 -62.961 145.789 C-59.623 143.772 -56.185 142.028 -52.688 140.312 C-46.042 137.036 -39.445 133.675 -32.875 130.25 C-31.542 129.56 -31.542 129.56 -30.182 128.857 C-20.495 124.172 -20.495 124.172 -14 116 C-13.721 113.309 -13.599 110.855 -13.628 108.168 C-13.624 107.395 -13.62 106.622 -13.617 105.826 C-13.609 103.279 -13.622 100.734 -13.637 98.188 C-13.637 96.413 -13.637 94.639 -13.635 92.864 C-13.635 89.149 -13.646 85.433 -13.664 81.718 C-13.687 76.96 -13.687 72.202 -13.68 67.444 C-13.677 63.781 -13.684 60.117 -13.693 56.454 C-13.697 54.7 -13.698 52.946 -13.697 51.191 C-13.696 48.738 -13.709 46.285 -13.725 43.832 C-13.723 43.11 -13.72 42.388 -13.718 41.643 C-13.77 36.717 -14.261 32.868 -17.688 29.188 C-23.361 26.274 -28.413 28.284 -33.691 31.078 Z " fill="#6C5E68" transform="translate(363,120)"/>
<path d="M0 0 C3.451 1.105 6.738 2.244 9.96 3.904 C10.679 4.272 11.398 4.64 12.139 5.019 C12.901 5.415 13.664 5.811 14.449 6.219 C15.261 6.636 16.073 7.053 16.91 7.484 C19.505 8.818 22.096 10.159 24.688 11.5 C26.378 12.37 28.069 13.24 29.76 14.109 C38.929 18.83 48.068 23.605 57.189 28.418 C62.108 31.012 67.04 33.579 71.988 36.117 C72.604 36.433 73.219 36.749 73.853 37.075 C76.301 38.332 78.75 39.588 81.201 40.839 C83.048 41.783 84.894 42.731 86.738 43.68 C88.332 44.495 88.332 44.495 89.958 45.328 C90.962 45.88 91.966 46.431 93 47 C94.039 47.447 95.077 47.893 96.148 48.353 C99.426 51.395 99.456 51.996 99.722 56.264 C99.739 58.516 99.723 60.769 99.681 63.021 C99.682 64.865 99.682 64.865 99.684 66.746 C99.68 70.115 99.65 73.481 99.608 76.849 C99.571 80.369 99.567 83.89 99.56 87.411 C99.542 94.076 99.492 100.741 99.432 107.406 C99.365 114.995 99.332 122.584 99.302 130.173 C99.239 145.782 99.134 161.391 99 177 C95.212 175.765 91.714 174.466 88.191 172.602 C86.842 171.892 86.842 171.892 85.465 171.168 C84.028 170.404 84.028 170.404 82.562 169.625 C80.491 168.534 78.419 167.443 76.348 166.352 C75.292 165.794 74.236 165.236 73.149 164.661 C68.275 162.09 63.387 159.546 58.5 157 C56.583 156 54.667 155 52.75 154 C51.801 153.505 50.852 153.01 49.875 152.5 C47 151 44.125 149.5 41.25 148 C39.824 147.256 39.824 147.256 38.37 146.497 C36.471 145.507 34.572 144.515 32.673 143.524 C27.611 140.881 22.545 138.244 17.477 135.613 C16.414 135.061 15.351 134.509 14.256 133.939 C12.203 132.873 10.15 131.808 8.096 130.744 C7.18 130.268 6.264 129.792 5.32 129.301 C4.508 128.88 3.696 128.459 2.86 128.025 C1 127 1 127 0 126 C-0.096 124.368 -0.122 122.731 -0.12 121.096 C-0.122 120.035 -0.123 118.973 -0.124 117.879 C-0.121 116.705 -0.117 115.53 -0.114 114.32 C-0.114 113.091 -0.114 111.862 -0.114 110.596 C-0.113 107.216 -0.108 103.836 -0.101 100.456 C-0.095 96.927 -0.095 93.398 -0.093 89.869 C-0.09 83.183 -0.082 76.496 -0.072 69.81 C-0.061 62.199 -0.055 54.589 -0.05 46.978 C-0.04 31.319 -0.022 15.659 0 0 Z M15 32 C13.475 35.051 13.844 38.235 13.839 41.583 C13.834 42.366 13.829 43.148 13.824 43.954 C13.809 46.549 13.802 49.143 13.797 51.738 C13.791 53.539 13.785 55.341 13.78 57.142 C13.769 60.922 13.763 64.703 13.76 68.483 C13.754 73.325 13.73 78.167 13.702 83.01 C13.683 86.732 13.678 90.454 13.676 94.177 C13.673 95.962 13.665 97.747 13.652 99.532 C13.635 102.031 13.637 104.529 13.644 107.029 C13.634 107.765 13.625 108.501 13.616 109.26 C13.652 113.69 14.258 116.491 17 120 C23.943 124.979 31.809 128.709 39.361 132.683 C41.6 133.862 43.838 135.046 46.074 136.23 C49.684 138.141 53.306 140.028 56.93 141.911 C58.952 142.975 60.957 144.067 62.96 145.165 C64.189 145.821 65.419 146.477 66.648 147.133 C67.71 147.712 68.771 148.291 69.865 148.887 C73.702 150.249 76.076 149.961 80 149 C82.869 146.735 83.839 145.483 85 142 C85.106 139.426 85.157 136.878 85.161 134.303 C85.166 133.521 85.171 132.738 85.176 131.932 C85.191 129.343 85.198 126.753 85.203 124.164 C85.209 122.364 85.215 120.565 85.22 118.765 C85.231 114.99 85.237 111.216 85.24 107.441 C85.246 102.607 85.27 97.773 85.298 92.938 C85.317 89.22 85.322 85.502 85.324 81.784 C85.327 80.002 85.335 78.22 85.348 76.438 C85.365 73.944 85.363 71.45 85.356 68.956 C85.366 68.221 85.375 67.486 85.384 66.729 C85.348 62.307 84.72 59.515 82 56 C79.503 54.19 79.503 54.19 76.531 52.723 C74.857 51.838 74.857 51.838 73.149 50.936 C71.933 50.311 70.717 49.686 69.5 49.062 C68.251 48.411 67.002 47.759 65.753 47.105 C63.156 45.748 60.556 44.399 57.952 43.055 C54.697 41.369 51.46 39.65 48.231 37.915 C45.786 36.602 43.335 35.3 40.883 33.999 C39.155 33.078 37.432 32.148 35.709 31.217 C34.653 30.662 33.596 30.107 32.508 29.535 C31.586 29.044 30.665 28.553 29.715 28.047 C22.946 25.437 19.782 27.329 15 32 Z " fill="#64CAFF" transform="translate(149,121)"/>
<path d="M0 0 C0.725 0.414 1.451 0.828 2.198 1.255 C3.846 2.162 5.494 3.067 7.144 3.97 C8.038 4.463 8.933 4.957 9.855 5.465 C13.148 7.243 16.476 8.946 19.815 10.634 C21.029 11.25 22.242 11.866 23.455 12.483 C25.823 13.686 28.195 14.879 30.571 16.068 C36.661 19.181 42.038 22.133 46.823 27.067 C47.707 30.174 47.405 31.738 46.823 35.067 C43.584 40.523 38.556 42.646 33.073 45.38 C32.135 45.859 31.197 46.338 30.231 46.832 C27.435 48.257 24.631 49.665 21.823 51.067 C21.062 51.449 20.302 51.83 19.518 52.223 C16.856 53.555 14.195 54.888 11.524 56.201 C8.208 57.839 4.944 59.535 1.714 61.337 C1.04 61.71 0.366 62.083 -0.328 62.467 C-1.602 63.177 -2.87 63.898 -4.131 64.631 C-8.077 66.825 -10.701 67.482 -15.177 67.067 C-17.671 66.048 -19.919 65.002 -22.278 63.735 C-22.949 63.388 -23.62 63.04 -24.311 62.681 C-26.481 61.551 -28.641 60.404 -30.802 59.255 C-32.29 58.473 -33.778 57.692 -35.267 56.912 C-38.917 54.995 -42.558 53.062 -46.197 51.122 C-48.005 50.159 -49.816 49.203 -51.628 48.247 C-54.443 46.762 -57.249 45.263 -60.052 43.755 C-60.852 43.33 -61.652 42.906 -62.476 42.469 C-69.242 38.76 -69.242 38.76 -71.177 35.067 C-71.878 29.545 -71.878 29.545 -71.177 27.067 C-67.613 22.972 -63.844 20.608 -58.985 18.353 C-57.552 17.662 -56.119 16.97 -54.688 16.275 C-53.947 15.916 -53.205 15.557 -52.441 15.188 C-48.67 13.322 -44.977 11.313 -41.274 9.313 C-39.021 8.113 -36.766 6.916 -34.51 5.719 C-32.98 4.901 -31.453 4.075 -29.93 3.243 C-27.681 2.016 -25.417 0.819 -23.149 -0.374 C-22.48 -0.748 -21.812 -1.122 -21.122 -1.507 C-13.699 -5.338 -7.117 -3.879 0 0 Z " fill="#020202" transform="translate(268.1767578125,75.9326171875)"/>
<path d="M0 0 C3.803 1.236 7.21 2.523 10.688 4.5 C16.853 7.944 23.1 11.219 29.362 14.484 C30.54 15.101 30.54 15.101 31.742 15.73 C32.442 16.096 33.142 16.461 33.863 16.837 C34.568 17.221 35.273 17.604 36 18 C37.286 18.586 37.286 18.586 38.598 19.184 C41 21 41 21 41.601 23.79 C41.59 24.921 41.579 26.051 41.568 27.216 C41.567 28.497 41.567 29.778 41.566 31.098 C41.541 32.496 41.515 33.895 41.488 35.293 C41.479 36.724 41.472 38.154 41.467 39.585 C41.448 43.348 41.399 47.111 41.343 50.874 C41.292 54.715 41.269 58.556 41.244 62.396 C41.191 69.931 41.105 77.466 41 85 C36.658 83.303 32.536 81.297 28.398 79.156 C27.68 78.786 26.962 78.417 26.222 78.036 C24.71 77.257 23.199 76.477 21.688 75.696 C19.377 74.501 17.064 73.311 14.75 72.121 C13.279 71.362 11.807 70.603 10.336 69.844 C9.645 69.488 8.955 69.133 8.243 68.767 C5.389 67.289 2.677 65.785 0 64 C-0.361 61.33 -0.361 61.33 -0.341 57.898 C-0.34 56.617 -0.34 55.336 -0.34 54.016 C-0.325 52.612 -0.309 51.208 -0.293 49.805 C-0.287 48.373 -0.283 46.941 -0.28 45.509 C-0.269 41.737 -0.239 37.966 -0.206 34.195 C-0.175 30.347 -0.162 26.5 -0.146 22.652 C-0.114 15.101 -0.063 7.551 0 0 Z " fill="#02B3F7" transform="translate(178,167)"/>
<path d="M0 0 C0 21.12 0 42.24 0 64 C-7.92 67.96 -7.92 67.96 -16 72 C-21.474 75.1 -21.474 75.1 -26.926 78.238 C-31.479 80.847 -36.009 83.336 -41 85 C-41 63.88 -41 42.76 -41 21 C-19.176 8.997 -19.176 8.997 -11.426 5.215 C-9.187 4.094 -7.032 2.894 -4.875 1.625 C-2 0 -2 0 0 0 Z " fill="#554A53" transform="translate(334,167)"/>
<path d="M0 0 C24.42 0 48.84 0 74 0 C74 9.9 74 19.8 74 30 C49.58 30 25.16 30 0 30 C0 20.1 0 10.2 0 0 Z " fill="#FCDF6E" transform="translate(378,145)"/>
<path d="M0 0 C24.42 0 48.84 0 74 0 C74 9.9 74 19.8 74 30 C49.58 30 25.16 30 0 30 C0 20.1 0 10.2 0 0 Z " fill="#FCDF6E" transform="translate(60,145)"/>
<path d="M0 0 C5.17 3.027 9.427 7.848 11.625 13.438 C12.524 22.366 11.598 28.443 7.062 36.062 C2.241 40.76 -3.601 43.689 -10.375 44.062 C-16.935 43.671 -22.696 41.182 -27.301 36.465 C-32.883 29.338 -33.295 22.371 -32.375 13.438 C-30.15 7.002 -25.069 2.88 -19.375 -0.562 C-13.282 -2.593 -5.912 -2.676 0 0 Z " fill="#050404" transform="translate(341.375,337.5625)"/>
<path d="M0 0 C5.17 3.027 9.427 7.848 11.625 13.438 C12.524 22.366 11.598 28.443 7.062 36.062 C2.241 40.76 -3.601 43.689 -10.375 44.062 C-16.935 43.671 -22.696 41.182 -27.301 36.465 C-32.883 29.338 -33.295 22.371 -32.375 13.438 C-30.15 7.002 -25.069 2.88 -19.375 -0.562 C-13.282 -2.593 -5.912 -2.676 0 0 Z " fill="#050404" transform="translate(266.375,337.5625)"/>
<path d="M0 0 C5.17 3.027 9.427 7.848 11.625 13.438 C12.524 22.366 11.598 28.443 7.062 36.062 C2.241 40.76 -3.601 43.689 -10.375 44.062 C-16.935 43.671 -22.696 41.182 -27.301 36.465 C-32.883 29.338 -33.295 22.371 -32.375 13.438 C-30.15 7.002 -25.069 2.88 -19.375 -0.562 C-13.282 -2.593 -5.912 -2.676 0 0 Z " fill="#050404" transform="translate(191.375,337.5625)"/>
<path d="M0 0 C2.13 0.928 4.223 1.942 6.281 3.02 C6.858 3.319 7.434 3.619 8.028 3.928 C9.241 4.561 10.451 5.197 11.659 5.837 C13.49 6.807 15.328 7.765 17.168 8.721 C22.634 11.582 27.909 14.512 33 18 C30.209 21.329 26.476 23.09 22.699 25.082 C21.985 25.46 21.271 25.838 20.536 26.227 C19.027 27.021 17.516 27.812 16.004 28.599 C13.696 29.808 11.404 31.043 9.111 32.279 C7.642 33.049 6.171 33.816 4.699 34.582 C4.018 34.955 3.336 35.328 2.634 35.712 C-0.543 37.327 -2.47 38.097 -6.021 37.445 C-7.004 36.968 -7.987 36.491 -9 36 C-10.746 35.161 -10.746 35.161 -12.527 34.304 C-13.809 33.642 -15.089 32.975 -16.367 32.305 C-17.047 31.952 -17.726 31.6 -18.427 31.237 C-20.578 30.12 -22.727 28.998 -24.875 27.875 C-26.341 27.113 -27.807 26.351 -29.273 25.59 C-32.851 23.731 -36.426 21.867 -40 20 C-40 19.01 -40 18.02 -40 17 C-39.219 16.597 -38.437 16.194 -37.633 15.778 C-34.704 14.266 -31.776 12.753 -28.849 11.238 C-27.587 10.586 -26.326 9.934 -25.064 9.283 C-23.838 8.651 -22.613 8.017 -21.388 7.383 C-19.621 6.469 -17.853 5.558 -16.085 4.646 C-13.643 3.343 -11.332 1.974 -9.004 0.484 C-5.292 -1.35 -3.971 -0.968 0 0 Z " fill="#FA8087" transform="translate(260,89)"/>
<path d="M0 0 C25.74 0 51.48 0 78 0 C81 6 81 6 81 15 C54.27 15 27.54 15 0 15 C0 10.05 0 5.1 0 0 Z " fill="#BA837E" transform="translate(378,115)"/>
<path d="M0 0 C7.59 0 15.18 0 23 0 C23 10.444 23 10.444 20 14 C16.431 15.19 13.201 15.125 9.488 15.098 C8.76 15.096 8.032 15.095 7.282 15.093 C4.958 15.088 2.636 15.075 0.312 15.062 C-1.264 15.057 -2.84 15.053 -4.416 15.049 C-8.277 15.038 -12.139 15.021 -16 15 C-16 14.67 -16 14.34 -16 14 C-11.05 14 -6.1 14 -1 14 C-0.67 9.38 -0.34 4.76 0 0 Z " fill="#DAD8E1" transform="translate(474,441)"/>
<path d="M0 0 C2.375 1.562 2.375 1.562 4 4 C4.562 7.5 4.562 7.5 4 11 C1.581 13.695 -0.008 14.806 -3.562 15.5 C-6.925 14.81 -8.049 13.819 -10 11 C-10.568 7.025 -10.623 4.935 -8.375 1.562 C-5.283 -0.472 -3.636 -0.606 0 0 Z " fill="#D9D4DC" transform="translate(334,351)"/>
<path d="M0 0 C2.375 1.562 2.375 1.562 4 4 C4.562 7.5 4.562 7.5 4 11 C1.581 13.695 -0.008 14.806 -3.562 15.5 C-6.925 14.81 -8.049 13.819 -10 11 C-10.568 7.025 -10.623 4.935 -8.375 1.562 C-5.283 -0.472 -3.636 -0.606 0 0 Z " fill="#D9D4DC" transform="translate(259,351)"/>
<path d="M0 0 C2.375 1.562 2.375 1.562 4 4 C4.562 7.5 4.562 7.5 4 11 C1.581 13.695 -0.008 14.806 -3.562 15.5 C-6.925 14.81 -8.049 13.819 -10 11 C-10.568 7.025 -10.623 4.935 -8.375 1.562 C-5.283 -0.472 -3.636 -0.606 0 0 Z " fill="#D9D4DC" transform="translate(184,351)"/>
</svg>