
<!-- Generator: visioncortex VTracer 0.6.4 -->
<svg version="1.1" xmlns="http://www.w3.org/2000/svg" viewBox="0 0 280 280" preserveAspectRatio="xMidYMid meet">
<path d="M0 0 C1.046 -0.001 2.092 -0.002 3.17 -0.003 C5.371 -0.004 7.572 -0.002 9.773 0.002 C13.144 0.008 16.514 0.002 19.885 -0.004 C22.027 -0.003 24.17 -0.002 26.312 0 C27.824 -0.003 27.824 -0.003 29.365 -0.006 C30.303 -0.003 31.241 0 32.208 0.003 C33.03 0.004 33.853 0.005 34.701 0.006 C36.972 0.134 38.823 0.34 40.957 1.133 C43.109 4.361 43.158 5.417 42.957 9.133 C43.942 9.379 44.927 9.625 45.941 9.879 C50.31 11.127 54.19 13.101 58.207 15.195 C63.458 17.945 63.458 17.945 68.957 20.133 C68.957 20.793 68.957 21.453 68.957 22.133 C69.535 22.38 70.112 22.628 70.707 22.883 C75.678 25.644 77.626 29.136 79.742 34.219 C80.716 36.556 81.726 38.864 82.766 41.172 C83.085 41.885 83.404 42.598 83.733 43.333 C84.376 44.769 85.022 46.203 85.671 47.636 C86.999 50.632 87.957 52.818 87.957 56.133 C88.617 56.133 89.277 56.133 89.957 56.133 C89.957 56.793 89.957 57.453 89.957 58.133 C91.277 58.793 92.597 59.453 93.957 60.133 C93.982 60.94 94.007 61.748 94.033 62.58 C94.149 66.223 94.272 69.865 94.395 73.508 C94.434 74.779 94.473 76.05 94.514 77.359 C94.577 79.177 94.577 79.177 94.641 81.031 C94.677 82.152 94.714 83.273 94.752 84.427 C94.783 87.1 94.783 87.1 95.957 89.133 C95.997 91.132 96 93.133 95.957 95.133 C99.292 95.351 99.292 95.351 102.957 94.133 C105.088 91.338 106.549 88.344 107.957 85.133 C108.617 85.133 109.277 85.133 109.957 85.133 C109.957 84.473 109.957 83.813 109.957 83.133 C115.936 79.147 124.023 79.951 131.02 79.945 C131.879 79.933 132.738 79.921 133.623 79.908 C138.791 79.896 143.101 80.307 147.957 82.133 C154.68 89.037 154.15 100.463 154.418 109.539 C153.819 112.91 152.647 114.075 149.957 116.133 C145.696 116.589 142.607 116.469 138.957 114.133 C138.297 116.113 137.637 118.093 136.957 120.133 C119.467 120.133 101.977 120.133 83.957 120.133 C83.957 121.783 83.957 123.433 83.957 125.133 C82.566 127.738 82.566 127.738 80.707 130.32 C80.104 131.18 79.5 132.04 78.879 132.926 C76.986 135.099 75.607 136.083 72.957 137.133 C72.957 137.793 72.957 138.453 72.957 139.133 C61.157 145.355 53.146 146.885 39.957 144.133 C39.957 143.473 39.957 142.813 39.957 142.133 C39.297 142.092 38.637 142.05 37.957 142.008 C34.158 140.9 31.77 138.883 28.727 136.41 C27.05 134.938 27.05 134.938 24.957 135.133 C24.297 135.463 23.637 135.793 22.957 136.133 C20.176 136.232 17.425 136.272 14.645 136.258 C13.505 136.264 13.505 136.264 12.342 136.27 C8.414 136.263 4.792 136.097 0.957 135.133 C0.957 135.793 0.957 136.453 0.957 137.133 C-5.835 143.006 -15.742 146.663 -24.668 146.133 C-34.584 144.692 -43.748 140.588 -50.023 132.617 C-54.767 125.614 -57.043 119.569 -57.043 111.133 C-61.22 112.573 -64.536 113.778 -68.168 116.32 C-71.473 118.404 -73.207 118.656 -77.043 118.133 C-79.043 116.133 -79.043 116.133 -79.48 112.945 C-78.823 107.22 -76.334 104.117 -72.035 100.395 C-69.059 98.094 -66.634 96.33 -63.043 95.133 C-63.006 94.434 -62.968 93.735 -62.93 93.016 C-62.864 92.106 -62.798 91.195 -62.73 90.258 C-62.672 89.353 -62.614 88.448 -62.555 87.516 C-62.043 85.133 -62.043 85.133 -59.043 83.133 C-58.053 83.133 -57.063 83.133 -56.043 83.133 C-56.043 82.473 -56.043 81.813 -56.043 81.133 C-57.094 81.012 -58.144 80.89 -59.227 80.766 C-84.239 77.812 -84.239 77.812 -89.711 72.52 C-91.573 69.184 -91.536 66.044 -91.48 62.32 C-91.47 61.602 -91.46 60.884 -91.449 60.144 C-91.253 54.472 -90.977 51.254 -87.043 47.133 C-84.545 45.966 -82.037 45.047 -79.426 44.164 C-75.998 42.681 -74.399 39.972 -72.043 37.133 C-64.689 32.677 -55.29 33.86 -47.043 34.133 C-46.744 33.519 -46.445 32.906 -46.137 32.273 C-44.97 29.991 -43.711 28.079 -42.043 26.133 C-41.383 26.133 -40.723 26.133 -40.043 26.133 C-40.043 25.473 -40.043 24.813 -40.043 24.133 C-39.383 24.133 -38.723 24.133 -38.043 24.133 C-37.806 23.612 -37.569 23.091 -37.324 22.555 C-35.624 19.34 -33.601 16.374 -31.543 13.383 C-31.139 12.781 -30.736 12.179 -30.32 11.559 C-29.281 10.046 -28.167 8.584 -27.043 7.133 C-26.383 7.133 -25.723 7.133 -25.043 7.133 C-25.043 6.473 -25.043 5.813 -25.043 5.133 C-16.846 -0.053 -9.519 -0.019 0 0 Z M-25.918 11.082 C-28.248 14.339 -28.248 14.339 -29.043 18.133 C-30.033 18.628 -30.033 18.628 -31.043 19.133 C-24.051 19.875 -24.051 19.875 -18.105 16.695 C-17.425 15.85 -16.744 15.004 -16.043 14.133 C-12.07 12.809 -8.248 12.977 -4.105 12.957 C-2.306 12.934 -0.506 12.91 1.293 12.885 C4.131 12.85 6.968 12.82 9.806 12.807 C12.544 12.791 15.281 12.751 18.02 12.707 C18.87 12.709 19.72 12.711 20.595 12.713 C25.241 12.711 25.241 12.711 29.016 10.284 C30.157 8.066 30.157 8.066 29.957 5.133 C32.927 5.133 35.897 5.133 38.957 5.133 C38.957 4.803 38.957 4.473 38.957 4.133 C31.271 4.006 23.585 3.918 15.898 3.858 C13.285 3.833 10.672 3.799 8.059 3.756 C4.296 3.695 0.533 3.667 -3.23 3.645 C-4.392 3.619 -5.554 3.593 -6.751 3.566 C-14.943 3.564 -20.187 5.124 -25.918 11.082 Z M38.957 6.133 C38.627 7.123 38.297 8.113 37.957 9.133 C36.864 9.442 35.771 9.752 34.645 10.07 C30.942 10.757 30.942 10.757 29.312 13.161 C25.697 16.188 22.176 15.736 17.598 15.742 C16.693 15.759 15.789 15.775 14.857 15.792 C11.974 15.841 9.091 15.862 6.207 15.883 C4.25 15.911 2.293 15.941 0.336 15.973 C-4.457 16.047 -9.25 16.096 -14.043 16.133 C-14.043 16.793 -14.043 17.453 -14.043 18.133 C-14.703 18.133 -15.363 18.133 -16.043 18.133 C-16.373 18.793 -16.703 19.453 -17.043 20.133 C-20.043 21.133 -20.043 21.133 -22.793 21.027 C-28.233 20.89 -31.773 21.175 -36.203 24.516 C-41.859 30.138 -45.903 36.396 -48.043 44.133 C-47.221 44.315 -46.398 44.496 -45.551 44.684 C-36.25 46.778 -27.629 48.761 -19.158 53.199 C-11.72 56.653 -5.296 56.917 2.805 56.762 C4.192 56.76 5.58 56.762 6.967 56.767 C11.319 56.777 15.669 56.738 20.02 56.695 C25.075 56.65 30.129 56.626 35.185 56.64 C37.181 56.637 39.177 56.603 41.173 56.568 C48.863 56.569 54.412 57.743 61.374 61.004 C64.607 62.417 67.303 62.711 70.816 62.621 C71.951 62.605 73.085 62.589 74.254 62.572 C75.393 62.53 76.533 62.488 77.707 62.445 C79.486 62.411 79.486 62.411 81.301 62.377 C84.188 62.319 87.072 62.237 89.957 62.133 C89.547 61.532 89.137 60.931 88.715 60.311 C88.176 59.514 87.637 58.716 87.082 57.895 C86.548 57.108 86.015 56.321 85.465 55.51 C83.17 51.892 81.581 48.086 79.957 44.133 C79.187 42.307 78.417 40.482 77.641 38.659 C76.864 36.832 76.094 35.002 75.324 33.172 C74.019 30.047 74.019 30.047 71.957 27.133 C71.297 27.133 70.637 27.133 69.957 27.133 C69.957 26.473 69.957 25.813 69.957 25.133 C63.293 21.745 56.593 18.445 49.832 15.258 C49.181 14.948 48.53 14.638 47.859 14.318 C44.551 12.674 44.551 12.674 40.957 12.133 C40.462 9.163 40.462 9.163 39.957 6.133 C39.627 6.133 39.297 6.133 38.957 6.133 Z M-65.043 38.133 C-65.043 38.463 -65.043 38.793 -65.043 39.133 C-61.743 39.133 -58.443 39.133 -55.043 39.133 C-55.043 38.803 -55.043 38.473 -55.043 38.133 C-58.343 38.133 -61.643 38.133 -65.043 38.133 Z M-51.043 39.133 C-51.373 40.123 -51.703 41.113 -52.043 42.133 C-52.703 42.133 -53.363 42.133 -54.043 42.133 C-54.043 42.793 -54.043 43.453 -54.043 44.133 C-53.053 44.133 -52.063 44.133 -51.043 44.133 C-50.713 42.483 -50.383 40.833 -50.043 39.133 C-50.373 39.133 -50.703 39.133 -51.043 39.133 Z M-69.043 43.133 C-69.043 43.463 -69.043 43.793 -69.043 44.133 C-65.413 44.133 -61.783 44.133 -58.043 44.133 C-57.713 43.473 -57.383 42.813 -57.043 42.133 C-61.179 42.034 -64.979 42.359 -69.043 43.133 Z M-69.043 52.133 C-71.78 58.779 -71.942 65.876 -70.043 72.758 C-69.713 73.542 -69.383 74.325 -69.043 75.133 C-68.383 75.133 -67.723 75.133 -67.043 75.133 C-67.043 75.793 -67.043 76.453 -67.043 77.133 C-62.836 77.807 -58.627 78.471 -54.418 79.133 C-53.228 79.324 -52.038 79.514 -50.812 79.711 C-49.659 79.891 -48.505 80.072 -47.316 80.258 C-45.73 80.509 -45.73 80.509 -44.111 80.766 C-41.056 81.131 -38.116 81.197 -35.043 81.133 C-35.089 80.166 -35.136 79.199 -35.184 78.203 C-35.411 70.007 -34.899 63.521 -31.043 56.133 C-30.669 55.384 -30.295 54.635 -29.91 53.863 C-29.481 53.007 -29.481 53.007 -29.043 52.133 C-37.448 48.198 -45.534 46.762 -54.793 46.695 C-55.617 46.662 -56.44 46.63 -57.289 46.596 C-62.934 46.546 -65.488 47.392 -69.043 52.133 Z M-82.043 48.133 C-82.373 48.793 -82.703 49.453 -83.043 50.133 C-76.608 49.638 -76.608 49.638 -70.043 49.133 C-70.043 48.803 -70.043 48.473 -70.043 48.133 C-74.003 48.133 -77.963 48.133 -82.043 48.133 Z M-73.043 52.133 C-77.663 52.793 -82.283 53.453 -87.043 54.133 C-87.373 55.453 -87.703 56.773 -88.043 58.133 C-86.461 58.471 -84.877 58.803 -83.293 59.133 C-82.411 59.318 -81.53 59.504 -80.621 59.695 C-77.822 60.244 -77.822 60.244 -74.043 60.133 C-72.168 56.265 -72.168 56.265 -73.043 52.133 Z M-27.043 55.133 C-27.043 55.793 -27.043 56.453 -27.043 57.133 C-27.703 57.133 -28.363 57.133 -29.043 57.133 C-29.525 58.382 -30.003 59.632 -30.48 60.883 C-30.747 61.579 -31.014 62.275 -31.289 62.992 C-33.26 68.587 -34.127 74.06 -32.123 79.742 C-30.346 82.265 -30.346 82.265 -28.143 82.545 C-25.56 82.65 -23.024 82.588 -20.441 82.477 C-19.471 82.455 -18.5 82.433 -17.5 82.411 C-15.418 82.363 -13.337 82.304 -11.256 82.235 C-8.084 82.134 -4.913 82.07 -1.739 82.02 C4.619 81.917 10.975 81.777 17.332 81.633 C19.544 81.584 21.757 81.536 23.969 81.488 C29.298 81.372 34.628 81.254 39.957 81.133 C38.967 80.473 37.977 79.813 36.957 79.133 C36.27 76.008 36.27 76.008 35.957 73.133 C36.617 73.133 37.277 73.133 37.957 73.133 C37.957 72.473 37.957 71.813 37.957 71.133 C36.36 70.951 36.36 70.951 34.73 70.766 C30.905 70.327 27.081 69.873 23.258 69.411 C21.802 69.235 20.347 69.061 18.891 68.89 C11.01 67.953 4.468 67.02 -2.289 62.695 C-5.453 60.9 -8.604 59.752 -12.043 58.57 C-18.874 56.207 -18.874 56.207 -21.793 54.918 C-24.164 53.834 -24.164 53.834 -27.043 55.133 Z M-2.043 59.133 C-1.053 59.463 -0.063 59.793 0.957 60.133 C0.957 60.793 0.957 61.453 0.957 62.133 C10.298 66.281 19.424 67.078 29.518 67.618 C31.509 67.731 33.499 67.881 35.488 68.031 C37.245 68.134 37.245 68.134 39.037 68.24 C41.957 69.133 41.957 69.133 43.873 72.034 C45.05 75.398 45.123 76.813 43.957 80.133 C43.297 81.123 42.637 82.113 41.957 83.133 C39.343 83.565 39.343 83.565 36.074 83.645 C34.324 83.698 34.324 83.698 32.539 83.752 C31.316 83.775 30.092 83.797 28.832 83.82 C26.985 83.872 26.985 83.872 25.102 83.924 C22.053 84.007 19.006 84.076 15.957 84.133 C15.957 84.463 15.957 84.793 15.957 85.133 C40.707 85.133 65.457 85.133 90.957 85.133 C90.957 78.533 90.957 71.933 90.957 65.133 C89.014 65.119 87.072 65.104 85.07 65.09 C83.141 65.055 81.211 65.02 79.281 64.98 C77.324 64.946 75.366 64.937 73.408 64.928 C66.997 64.781 61.961 64.38 56.145 61.602 C45.693 57.125 33.787 58.617 22.645 58.82 C20.247 58.845 17.849 58.868 15.451 58.889 C9.619 58.943 3.788 59.027 -2.043 59.133 Z M-88.043 61.133 C-88.043 62.783 -88.043 64.433 -88.043 66.133 C-83.488 68.337 -79.014 68.721 -74.043 69.133 C-74.043 67.153 -74.043 65.173 -74.043 63.133 C-78.663 62.473 -83.283 61.813 -88.043 61.133 Z M-84.043 71.133 C-83.166 73.435 -83.166 73.435 -80.293 74.258 C-77.341 75.053 -75.071 75.311 -72.043 75.133 C-72.373 74.473 -72.703 73.813 -73.043 73.133 C-75.622 72.442 -75.622 72.442 -78.605 72.008 C-79.617 71.84 -80.629 71.673 -81.672 71.5 C-82.454 71.379 -83.237 71.258 -84.043 71.133 Z M40.957 74.133 C40.957 75.783 40.957 77.433 40.957 79.133 C41.287 79.133 41.617 79.133 41.957 79.133 C41.957 77.483 41.957 75.833 41.957 74.133 C41.627 74.133 41.297 74.133 40.957 74.133 Z M123.957 83.133 C124.287 83.793 124.617 84.453 124.957 85.133 C126.582 85.187 128.207 85.226 129.832 85.258 C130.737 85.281 131.642 85.304 132.574 85.328 C135.145 85.376 135.145 85.376 136.957 83.133 C132.667 83.133 128.377 83.133 123.957 83.133 Z M108.219 91.059 C107.665 92.142 107.112 93.225 106.542 94.341 C104.854 97.314 104.01 97.884 100.957 99.133 C100.045 101.305 100.045 101.305 99.707 103.758 C99.558 104.575 99.408 105.392 99.254 106.234 C99.107 107.174 99.107 107.174 98.957 108.133 C98.297 108.133 97.637 108.133 96.957 108.133 C97.617 111.103 98.277 114.073 98.957 117.133 C102.587 117.133 106.217 117.133 109.957 117.133 C109.957 116.473 109.957 115.813 109.957 115.133 C108.781 114.483 108.781 114.483 107.582 113.82 C104.47 111.82 103.805 110.694 102.957 107.133 C103.114 103.924 103.713 102.458 105.645 99.883 C108.537 97.694 110.336 97.207 113.957 97.133 C117.035 98.462 118.541 99.439 120.27 102.32 C120.496 102.918 120.723 103.517 120.957 104.133 C125.263 103.113 128.172 101.32 131.645 98.695 C136.782 94.942 141.768 93.368 147.957 92.133 C147.462 89.163 147.462 89.163 146.957 86.133 C141.79 84.41 136.335 84.552 130.926 84.398 C129.496 84.347 128.067 84.272 126.64 84.173 C118.425 83.614 113.035 83.591 108.219 91.059 Z M-59.043 88.133 C-59.043 90.113 -59.043 92.093 -59.043 94.133 C-9.213 94.133 40.617 94.133 91.957 94.133 C91.957 92.483 91.957 90.833 91.957 89.133 C90.043 87.219 86.507 87.959 83.899 87.943 C83.16 87.935 82.422 87.927 81.662 87.918 C80.054 87.901 78.446 87.886 76.838 87.872 C74.295 87.851 71.754 87.824 69.212 87.796 C63.814 87.736 58.417 87.684 53.02 87.633 C46.771 87.574 40.522 87.511 34.274 87.441 C31.764 87.414 29.255 87.394 26.745 87.373 C25.212 87.356 23.678 87.339 22.145 87.322 C21.443 87.318 20.741 87.314 20.018 87.31 C15.185 87.247 15.185 87.247 12.957 86.133 C10.752 86.031 8.543 85.994 6.336 85.988 C5.316 85.983 5.316 85.983 4.276 85.977 C2.024 85.968 -0.228 85.966 -2.48 85.965 C-4.042 85.962 -5.604 85.958 -7.166 85.955 C-10.441 85.949 -13.716 85.947 -16.991 85.948 C-21.195 85.948 -25.398 85.934 -29.602 85.917 C-32.827 85.906 -36.053 85.904 -39.278 85.904 C-40.829 85.903 -42.379 85.898 -43.929 85.891 C-46.093 85.881 -48.257 85.884 -50.422 85.89 C-51.655 85.888 -52.888 85.887 -54.158 85.886 C-57.171 85.832 -57.171 85.832 -59.043 88.133 Z M140.27 97.133 C139.276 97.504 138.282 97.875 137.258 98.258 C136.499 98.547 135.739 98.835 134.957 99.133 C134.957 99.793 134.957 100.453 134.957 101.133 C133.967 101.133 132.977 101.133 131.957 101.133 C131.957 101.793 131.957 102.453 131.957 103.133 C131.07 103.401 130.183 103.669 129.27 103.945 C123.481 106.021 121.055 107.88 117.957 113.133 C115.77 114.445 115.77 114.445 113.957 115.133 C113.957 115.793 113.957 116.453 113.957 117.133 C120.887 117.133 127.817 117.133 134.957 117.133 C133.652 114.522 132.599 114.452 129.895 113.508 C129.161 113.247 128.428 112.987 127.672 112.719 C127.106 112.525 126.54 112.332 125.957 112.133 C125.957 110.813 125.957 109.493 125.957 108.133 C132.232 108.538 136.994 109.728 142.695 112.391 C145.296 113.244 146.443 113.151 148.957 112.133 C151.305 110.254 151.305 110.254 150.969 107.164 C150.862 105.999 150.755 104.833 150.645 103.633 C150.496 101.885 150.496 101.885 150.344 100.102 C150.132 97.21 150.132 97.21 148.957 95.133 C145.582 95.133 143.417 95.948 140.27 97.133 Z M-54.043 97.133 C-54.043 100.103 -54.043 103.073 -54.043 106.133 C-50.697 109.479 -50.396 109.508 -45.977 109.518 C-44.945 109.528 -43.914 109.538 -42.852 109.548 C-41.739 109.545 -40.627 109.542 -39.48 109.539 C-38.338 109.55 -37.195 109.561 -36.017 109.572 C-32.359 109.606 -28.701 109.622 -25.043 109.633 C-20.23 109.647 -15.418 109.681 -10.605 109.727 C-9.493 109.724 -8.38 109.721 -7.234 109.717 C-6.203 109.728 -5.172 109.738 -4.109 109.748 C-2.747 109.751 -2.747 109.751 -1.358 109.754 C1.409 110.207 2.28 110.928 3.957 113.133 C4.557 115.202 4.557 115.202 4.871 117.547 C4.992 118.39 5.113 119.233 5.238 120.102 C5.352 120.978 5.465 121.855 5.582 122.758 C5.821 124.5 6.063 126.243 6.309 127.984 C6.41 128.756 6.511 129.528 6.616 130.323 C6.784 132.147 6.784 132.147 7.957 133.133 C10.101 133.232 12.248 133.263 14.395 133.258 C16.156 133.262 16.156 133.262 17.953 133.266 C20.881 133.34 20.881 133.34 22.957 132.133 C23.426 130.003 23.426 130.003 23.59 127.441 C23.716 126.025 23.716 126.025 23.844 124.58 C23.922 123.587 24.001 122.594 24.082 121.57 C24.212 120.075 24.212 120.075 24.344 118.549 C24.557 116.077 24.761 113.606 24.957 111.133 C28.159 110.066 30.499 109.989 33.865 109.959 C35.08 109.946 36.295 109.932 37.546 109.918 C38.859 109.908 40.171 109.897 41.523 109.887 C42.882 109.871 44.241 109.855 45.599 109.838 C51.369 109.767 57.139 109.707 62.909 109.656 C66.44 109.624 69.97 109.583 73.501 109.536 C75.503 109.512 77.505 109.499 79.507 109.486 C81.324 109.461 81.324 109.461 83.178 109.436 C84.248 109.425 85.318 109.415 86.421 109.405 C89.125 109.383 89.125 109.383 90.957 107.133 C90.957 103.833 90.957 100.533 90.957 97.133 C43.107 97.133 -4.743 97.133 -54.043 97.133 Z M-61.043 98.133 C-61.703 98.793 -62.363 99.453 -63.043 100.133 C-62.383 100.133 -61.723 100.133 -61.043 100.133 C-60.754 100.731 -60.465 101.329 -60.168 101.945 C-58.996 104.326 -58.996 104.326 -57.043 107.133 C-57.043 104.493 -57.043 101.853 -57.043 99.133 C-58.935 98.451 -58.935 98.451 -61.043 98.133 Z M94.957 99.133 C94.957 100.783 94.957 102.433 94.957 104.133 C95.617 104.133 96.277 104.133 96.957 104.133 C96.957 102.483 96.957 100.833 96.957 99.133 C96.297 99.133 95.637 99.133 94.957 99.133 Z M108.957 100.133 C108.957 100.463 108.957 100.793 108.957 101.133 C110.937 101.133 112.917 101.133 114.957 101.133 C114.957 100.803 114.957 100.473 114.957 100.133 C112.977 100.133 110.997 100.133 108.957 100.133 Z M-67.043 101.133 C-68.528 103.113 -68.528 103.113 -70.043 105.133 C-69.053 105.463 -68.063 105.793 -67.043 106.133 C-66.713 107.123 -66.383 108.113 -66.043 109.133 C-64.723 109.133 -63.403 109.133 -62.043 109.133 C-62.227 106.192 -62.227 106.192 -63.043 103.133 C-64.995 101.696 -64.995 101.696 -67.043 101.133 Z M114.957 101.133 C115.617 101.793 116.277 102.453 116.957 103.133 C116.957 102.473 116.957 101.813 116.957 101.133 C116.297 101.133 115.637 101.133 114.957 101.133 Z M105.957 103.133 C105.957 104.783 105.957 106.433 105.957 108.133 C106.287 108.133 106.617 108.133 106.957 108.133 C106.957 106.483 106.957 104.833 106.957 103.133 C106.627 103.133 106.297 103.133 105.957 103.133 Z M108.957 103.133 C108.957 105.113 108.957 107.093 108.957 109.133 C110.937 109.133 112.917 109.133 114.957 109.133 C114.957 107.153 114.957 105.173 114.957 103.133 C112.977 103.133 110.997 103.133 108.957 103.133 Z M116.957 103.133 C116.957 105.113 116.957 107.093 116.957 109.133 C117.287 109.133 117.617 109.133 117.957 109.133 C117.957 107.153 117.957 105.173 117.957 103.133 C117.627 103.133 117.297 103.133 116.957 103.133 Z M-73.043 108.133 C-75.33 109.972 -75.33 109.972 -75.168 112.758 C-75.127 113.542 -75.085 114.325 -75.043 115.133 C-72.547 114.352 -72.547 114.352 -70.043 113.133 C-69.713 112.143 -69.383 111.153 -69.043 110.133 C-69.373 109.473 -69.703 108.813 -70.043 108.133 C-71.033 108.133 -72.023 108.133 -73.043 108.133 Z M85.957 112.133 C85.957 113.783 85.957 115.433 85.957 117.133 C88.927 117.133 91.897 117.133 94.957 117.133 C96.307 115.003 96.307 115.003 95.02 112.008 C94.669 111.059 94.318 110.11 93.957 109.133 C91.348 109.133 88.317 111.103 85.957 112.133 Z M115.957 109.133 C115.627 109.793 115.297 110.453 114.957 111.133 C115.617 111.133 116.277 111.133 116.957 111.133 C116.627 110.473 116.297 109.813 115.957 109.133 Z M109.957 111.133 C109.957 111.463 109.957 111.793 109.957 112.133 C111.607 112.133 113.257 112.133 114.957 112.133 C114.957 111.803 114.957 111.473 114.957 111.133 C113.307 111.133 111.657 111.133 109.957 111.133 Z M-53.043 112.133 C-53.043 113.783 -53.043 115.433 -53.043 117.133 C-52.053 117.628 -52.053 117.628 -51.043 118.133 C-51.043 116.153 -51.043 114.173 -51.043 112.133 C-51.703 112.133 -52.363 112.133 -53.043 112.133 Z M-48.043 112.133 C-48.043 115.103 -48.043 118.073 -48.043 121.133 C-45.945 118.773 -45.074 117.587 -44.855 114.383 C-44.917 113.64 -44.979 112.898 -45.043 112.133 C-46.033 112.133 -47.023 112.133 -48.043 112.133 Z M-41.043 112.133 C-41.376 116.378 -41.482 118.488 -39.043 122.07 C-38.383 122.751 -37.723 123.432 -37.043 124.133 C-36.383 123.803 -35.723 123.473 -35.043 123.133 C-35.662 122.06 -36.28 120.988 -36.918 119.883 C-38.375 117.335 -39.772 114.78 -41.043 112.133 Z M-39.043 112.133 C-38.053 113.618 -38.053 113.618 -37.043 115.133 C-37.043 114.143 -37.043 113.153 -37.043 112.133 C-37.703 112.133 -38.363 112.133 -39.043 112.133 Z M-35.043 112.133 C-34.743 115.633 -34.086 117.082 -31.793 119.82 C-28.427 122.651 -26.071 124.237 -21.605 124.008 C-16.973 122.426 -13.754 120.2 -11.043 116.133 C-11.043 114.813 -11.043 113.493 -11.043 112.133 C-13.353 112.133 -15.663 112.133 -18.043 112.133 C-18.373 113.123 -18.703 114.113 -19.043 115.133 C-22.013 115.133 -24.983 115.133 -28.043 115.133 C-28.043 114.143 -28.043 113.153 -28.043 112.133 C-30.353 112.133 -32.663 112.133 -35.043 112.133 Z M-5.043 112.133 C-5.567 113.181 -5.567 113.181 -6.102 114.25 C-7.749 117.544 -9.396 120.839 -11.043 124.133 C-7.21 122.679 -5.76 120.825 -4.043 117.133 C-3.791 114.423 -3.791 114.423 -4.043 112.133 C-4.373 112.133 -4.703 112.133 -5.043 112.133 Z M-1.043 112.133 C-1.167 113.164 -1.29 114.195 -1.418 115.258 C-1.982 118.754 -2.83 121.817 -4.043 125.133 C-2.723 125.133 -1.403 125.133 -0.043 125.133 C0.374 123.534 0.765 121.928 1.145 120.32 C1.475 118.98 1.475 118.98 1.812 117.613 C2.237 115.069 2.237 115.069 0.508 113.309 C-0.004 112.921 -0.516 112.533 -1.043 112.133 Z M36.957 112.133 C36.957 113.783 36.957 115.433 36.957 117.133 C37.947 117.628 37.947 117.628 38.957 118.133 C38.627 116.153 38.297 114.173 37.957 112.133 C37.627 112.133 37.297 112.133 36.957 112.133 Z M38.957 112.133 C40.612 116.024 42.033 119.334 45.27 122.133 C48.788 123.442 51.224 123.591 54.957 123.133 C58.3 121.269 61.635 119.229 63.957 116.133 C63.957 114.813 63.957 113.493 63.957 112.133 C61.083 111.882 61.083 111.882 57.957 112.133 C57.462 112.628 56.967 113.123 56.457 113.633 C54.957 115.133 54.957 115.133 51.895 115.508 C50.44 115.322 50.44 115.322 48.957 115.133 C48.297 114.143 47.637 113.153 46.957 112.133 C44.98 111.77 44.98 111.77 42.832 111.945 C41.553 112.007 40.275 112.069 38.957 112.133 Z M68.957 112.133 C68.689 112.999 68.421 113.865 68.145 114.758 C66.986 118.051 65.575 121.044 63.957 124.133 C67.118 122.763 67.95 122.144 69.957 119.133 C70.036 116.801 70.045 114.464 69.957 112.133 C69.627 112.133 69.297 112.133 68.957 112.133 Z M73.957 112.133 C73.752 112.82 73.547 113.507 73.336 114.215 C73.067 115.116 72.797 116.017 72.52 116.945 C72.253 117.839 71.986 118.732 71.711 119.652 C71.153 121.488 70.564 123.313 69.957 125.133 C71.607 125.133 73.257 125.133 74.957 125.133 C75.617 120.843 76.277 116.553 76.957 112.133 C75.967 112.133 74.977 112.133 73.957 112.133 Z M-9.043 113.133 C-8.043 116.133 -8.043 116.133 -8.043 116.133 Z M28.957 113.133 C26.65 115.848 26.65 115.848 27.332 118.32 C27.538 118.918 27.745 119.517 27.957 120.133 C28.947 118.153 29.937 116.173 30.957 114.133 C30.297 113.803 29.637 113.473 28.957 113.133 Z M33.957 113.133 C33.026 115.739 32.808 116.775 33.895 119.383 C34.245 119.96 34.596 120.538 34.957 121.133 C35.617 121.133 36.277 121.133 36.957 121.133 C36.957 122.123 36.957 123.113 36.957 124.133 C37.947 124.133 38.937 124.133 39.957 124.133 C39.957 123.473 39.957 122.813 39.957 122.133 C39.297 122.133 38.637 122.133 37.957 122.133 C36.967 119.163 35.977 116.193 34.957 113.133 C34.627 113.133 34.297 113.133 33.957 113.133 Z M65.957 114.133 C66.957 116.133 66.957 116.133 66.957 116.133 Z M79.957 114.133 C79.627 115.783 79.297 117.433 78.957 119.133 C79.947 119.133 80.937 119.133 81.957 119.133 C82.287 117.483 82.617 115.833 82.957 114.133 C81.967 114.133 80.977 114.133 79.957 114.133 Z M-37.043 115.133 C-36.043 118.133 -36.043 118.133 -36.043 118.133 Z M-10.043 116.133 C-10.373 117.123 -10.703 118.113 -11.043 119.133 C-10.383 119.133 -9.723 119.133 -9.043 119.133 C-9.373 118.143 -9.703 117.153 -10.043 116.133 Z M64.957 116.133 C64.627 117.123 64.297 118.113 63.957 119.133 C64.617 119.133 65.277 119.133 65.957 119.133 C65.627 118.143 65.297 117.153 64.957 116.133 Z M38.957 118.133 C39.957 120.133 39.957 120.133 39.957 120.133 Z M-35.043 119.133 C-34.043 121.133 -34.043 121.133 -34.043 121.133 Z M-45.043 120.133 C-46.033 121.618 -46.033 121.618 -47.043 123.133 C-46.053 123.463 -45.063 123.793 -44.043 124.133 C-44.043 124.793 -44.043 125.453 -44.043 126.133 C-42.256 127.717 -42.256 127.717 -40.043 129.258 C-38.929 130.066 -38.929 130.066 -37.793 130.891 C-37.215 131.301 -36.638 131.71 -36.043 132.133 C-36.373 130.483 -36.703 128.833 -37.043 127.133 C-38.033 127.133 -39.023 127.133 -40.043 127.133 C-40.507 125.957 -40.507 125.957 -40.98 124.758 C-41.972 122.21 -41.972 122.21 -43.043 120.133 C-43.703 120.133 -44.363 120.133 -45.043 120.133 Z M28.957 120.133 C28.627 121.123 28.297 122.113 27.957 123.133 C29.58 124.842 31.25 126.507 32.957 128.133 C33.617 128.133 34.277 128.133 34.957 128.133 C34.957 128.793 34.957 129.453 34.957 130.133 C35.617 130.133 36.277 130.133 36.957 130.133 C36.957 130.793 36.957 131.453 36.957 132.133 C37.617 132.133 38.277 132.133 38.957 132.133 C39.287 133.453 39.617 134.773 39.957 136.133 C39.869 130.29 39.869 130.29 36.52 125.883 C35.674 125.305 34.828 124.728 33.957 124.133 C32.645 121.883 32.645 121.883 31.957 120.133 C30.967 120.133 29.977 120.133 28.957 120.133 Z M-33.043 122.133 C-33.043 122.793 -33.043 123.453 -33.043 124.133 C-32.383 124.133 -31.723 124.133 -31.043 124.133 C-31.043 123.473 -31.043 122.813 -31.043 122.133 C-31.703 122.133 -32.363 122.133 -33.043 122.133 Z M-15.043 122.133 C-15.043 122.793 -15.043 123.453 -15.043 124.133 C-14.383 124.133 -13.723 124.133 -13.043 124.133 C-13.043 123.473 -13.043 122.813 -13.043 122.133 C-13.703 122.133 -14.363 122.133 -15.043 122.133 Z M41.957 122.133 C41.957 122.793 41.957 123.453 41.957 124.133 C42.617 124.133 43.277 124.133 43.957 124.133 C43.957 123.473 43.957 122.813 43.957 122.133 C43.297 122.133 42.637 122.133 41.957 122.133 Z M59.957 122.133 C59.957 122.793 59.957 123.453 59.957 124.133 C60.617 124.133 61.277 124.133 61.957 124.133 C61.957 123.473 61.957 122.813 61.957 122.133 C61.297 122.133 60.637 122.133 59.957 122.133 Z M-18.043 124.133 C-21.343 124.463 -24.643 124.793 -28.043 125.133 C-28.043 125.463 -28.043 125.793 -28.043 126.133 C-24.413 126.133 -20.783 126.133 -17.043 126.133 C-17.373 125.473 -17.703 124.813 -18.043 124.133 Z M51.832 124.633 C49.914 124.88 49.914 124.88 47.957 125.133 C47.957 125.463 47.957 125.793 47.957 126.133 C50.927 126.133 53.897 126.133 56.957 126.133 C57.287 125.473 57.617 124.813 57.957 124.133 C55.868 124.133 53.903 124.366 51.832 124.633 Z M-33.043 126.133 C-33.043 126.793 -33.043 127.453 -33.043 128.133 C-27.693 130.566 -22.843 130.733 -17.043 130.133 C-13.953 128.84 -13.953 128.84 -12.043 127.133 C-15.043 125.799 -15.043 125.799 -18.043 127.133 C-23.092 127.424 -28.129 127.443 -33.043 126.133 Z M41.957 126.133 C42.803 128.292 42.803 128.292 44.957 129.258 C50.218 130.792 55.044 131.07 60.02 128.633 C60.659 128.138 61.298 127.643 61.957 127.133 C59.304 125.806 57.701 126.277 54.77 126.633 C50.224 127.105 46.425 127.026 41.957 126.133 Z M-12.043 130.133 C-14.019 131.179 -16.017 132.187 -18.043 133.133 C-17.053 133.628 -17.053 133.628 -16.043 134.133 C-16.043 134.793 -16.043 135.453 -16.043 136.133 C-15.383 136.133 -14.723 136.133 -14.043 136.133 C-14.043 135.473 -14.043 134.813 -14.043 134.133 C-13.3 133.865 -12.558 133.597 -11.793 133.32 C-9.048 132.272 -9.048 132.272 -7.043 130.57 C-4.718 128.899 -2.852 128.523 -0.043 128.133 C-0.043 127.803 -0.043 127.473 -0.043 127.133 C-1.48 127.051 -2.917 126.993 -4.355 126.945 C-5.156 126.911 -5.956 126.876 -6.781 126.84 C-9.58 127.202 -10.214 128.061 -12.043 130.133 Z M64.395 128.508 C63.683 129.312 63.683 129.312 62.957 130.133 C60.27 131.32 60.27 131.32 57.957 132.133 C58.287 133.123 58.617 134.113 58.957 135.133 C63.681 133.509 67.899 131.023 71.957 128.133 C71.957 127.803 71.957 127.473 71.957 127.133 C67.844 126.675 67.844 126.675 64.395 128.508 Z M-45.043 130.133 C-45.043 131.123 -45.043 132.113 -45.043 133.133 C-43.723 133.793 -42.403 134.453 -41.043 135.133 C-40.713 134.473 -40.383 133.813 -40.043 133.133 C-40.703 133.133 -41.363 133.133 -42.043 133.133 C-42.373 132.143 -42.703 131.153 -43.043 130.133 C-43.703 130.133 -44.363 130.133 -45.043 130.133 Z M29.957 130.133 C29.627 130.793 29.297 131.453 28.957 132.133 C29.617 132.133 30.277 132.133 30.957 132.133 C30.957 132.793 30.957 133.453 30.957 134.133 C31.947 134.463 32.937 134.793 33.957 135.133 C33.957 134.143 33.957 133.153 33.957 132.133 C32.637 131.473 31.317 130.813 29.957 130.133 Z M-34.043 131.133 C-33.713 132.453 -33.383 133.773 -33.043 135.133 C-27.993 136.169 -23.169 136.235 -18.043 136.133 C-19.667 132.94 -19.667 132.94 -22.285 132.656 C-23.588 132.583 -23.588 132.583 -24.918 132.508 C-28.09 132.309 -30.98 132.002 -34.043 131.133 Z M-3.043 131.133 C-5.518 132.618 -5.518 132.618 -8.043 134.133 C-7.713 135.123 -7.383 136.113 -7.043 137.133 C-5.393 136.143 -3.743 135.153 -2.043 134.133 C-2.373 133.143 -2.703 132.153 -3.043 131.133 Z M40.957 131.133 C40.957 132.453 40.957 133.773 40.957 135.133 C46.237 135.463 51.517 135.793 56.957 136.133 C56.297 135.803 55.637 135.473 54.957 135.133 C54.957 134.473 54.957 133.813 54.957 133.133 C52.03 131.981 52.03 131.981 49.082 132.133 C46.201 132.133 43.751 131.79 40.957 131.133 Z M70.957 131.133 C70.957 131.793 70.957 132.453 70.957 133.133 C69.637 133.463 68.317 133.793 66.957 134.133 C67.287 135.123 67.617 136.113 67.957 137.133 C69.607 136.143 71.257 135.153 72.957 134.133 C72.627 133.143 72.297 132.153 71.957 131.133 C71.627 131.133 71.297 131.133 70.957 131.133 Z M-27.043 139.133 C-27.373 140.123 -27.703 141.113 -28.043 142.133 C-26.063 142.133 -24.083 142.133 -22.043 142.133 C-21.713 141.143 -21.383 140.153 -21.043 139.133 C-23.023 139.133 -25.003 139.133 -27.043 139.133 Z M47.957 139.133 C47.957 140.123 47.957 141.113 47.957 142.133 C49.607 142.133 51.257 142.133 52.957 142.133 C53.287 141.143 53.617 140.153 53.957 139.133 C51.977 139.133 49.997 139.133 47.957 139.133 Z " fill="#69A400" transform="translate(113.04296875,86.8671875)"/>
<path d="M0 0 C2.31 0 4.62 0 7 0 C6.67 1.32 6.34 2.64 6 4 C6 3.01 6 2.02 6 1 C4.02 1 2.04 1 0 1 C0 0.67 0 0.34 0 0 Z M-22 0 C-18.809 1.1 -18.084 1.828 -16.562 4.938 C-14.751 8.488 -13.661 9.502 -10 11 C-4.236 11.734 -1.561 10.446 3 7 C4.319 6.306 5.646 5.625 7 5 C7.33 5.99 7.66 6.98 8 8 C8.124 7.361 8.248 6.721 8.375 6.062 C8.684 5.042 8.684 5.042 9 4 C9.66 3.67 10.32 3.34 11 3 C10.292 6.681 8.84 9.745 7 13 C0.391 17.406 -5.393 17.362 -13 16 C-16.625 14.938 -16.625 14.938 -19 14 C-18.67 13.01 -18.34 12.02 -18 11 C-18.66 11 -19.32 11 -20 11 C-23.077 4.6 -23.077 4.6 -22.688 1.562 C-22.461 1.047 -22.234 0.531 -22 0 Z M-21 1 C-21 2.65 -21 4.3 -21 6 C-20.01 6.495 -20.01 6.495 -19 7 C-19.33 5.02 -19.66 3.04 -20 1 C-20.33 1 -20.66 1 -21 1 Z M-19 7 C-18 9 -18 9 -18 9 Z M-16 11 C-16 11.66 -16 12.32 -16 13 C-15.34 13 -14.68 13 -14 13 C-14 12.34 -14 11.68 -14 11 C-14.66 11 -15.32 11 -16 11 Z M2 11 C2 11.66 2 12.32 2 13 C2.66 13 3.32 13 4 13 C4 12.34 4 11.68 4 11 C3.34 11 2.68 11 2 11 Z M-6.125 13.5 C-8.043 13.748 -8.043 13.748 -10 14 C-10 14.33 -10 14.66 -10 15 C-7.03 15 -4.06 15 -1 15 C-0.67 14.34 -0.34 13.68 0 13 C-2.089 13 -4.054 13.233 -6.125 13.5 Z M-8 2 C-6.35 2 -4.7 2 -3 2 C-3 2.33 -3 2.66 -3 3 C-4.65 3 -6.3 3 -8 3 C-8 2.67 -8 2.34 -8 2 Z M-15 17 C-12 18 -12 18 -12 18 Z " fill="#609700" transform="translate(171,198)"/>
<path d="M0 0 C2.574 2.955 2.739 6.163 2.688 9.938 C1.845 13.964 -0.204 16.453 -3.465 18.984 C-6.994 20.805 -10.482 20.693 -14.312 19.938 C-16.875 18.5 -16.875 18.5 -18.312 15.938 C-19.157 11.253 -18.755 7.857 -16.688 3.562 C-11.559 -2.106 -6.925 -3.182 0 0 Z M-14.312 6.938 C-14.642 7.267 -14.972 7.597 -15.312 7.938 C-15.701 12.086 -15.701 12.086 -14.125 15.812 C-11.547 17.413 -10.311 17.495 -7.312 16.938 C-3.841 14.861 -3.841 14.861 -1.312 11.938 C-0.598 8.925 -0.846 7.098 -1.312 3.938 C-7.241 -0.015 -9.875 1.884 -14.312 6.938 Z " fill="#67A200" transform="translate(108.3125,117.0625)"/>
<path d="M0 0 C2.31 0 4.62 0 7 0 C6.67 1.32 6.34 2.64 6 4 C6 3.01 6 2.02 6 1 C4.02 1 2.04 1 0 1 C0 0.67 0 0.34 0 0 Z M-8 2 C-6.35 2 -4.7 2 -3 2 C-3 2.33 -3 2.66 -3 3 C-4.65 3 -6.3 3 -8 3 C-8 2.67 -8 2.34 -8 2 Z M10 3 C11 6 11 6 9.25 9.562 C7.653 12.334 6.803 13.131 4 15 C2.01 15.39 0.01 15.732 -2 16 C-2 15.34 -2 14.68 -2 14 C-6.455 14.495 -6.455 14.495 -11 15 C-11 14.34 -11 13.68 -11 13 C-8.36 13 -5.72 13 -3 13 C-3 12.34 -3 11.68 -3 11 C0.19 8.68 3.417 6.654 7 5 C7.33 5.99 7.66 6.98 8 8 C8.144 7.361 8.289 6.721 8.438 6.062 C9 4 9 4 10 3 Z M2 11 C2 11.66 2 12.32 2 13 C2.66 13 3.32 13 4 13 C4 12.34 4 11.68 4 11 C3.34 11 2.68 11 2 11 Z " fill="#568600" transform="translate(171,198)"/>
<path d="M0 0 C1.98 0 3.96 0 6 0 C6 0.33 6 0.66 6 1 C4.02 1 2.04 1 0 1 C0 0.67 0 0.34 0 0 Z M11 1 C12 4 12 4 11.074 6.191 C10.617 6.974 10.159 7.756 9.688 8.562 C9.238 9.348 8.788 10.133 8.324 10.941 C5.784 14.89 3.493 15.856 -1 17 C-4.009 17.157 -6.99 17.12 -10 17 C-10 16.34 -10 15.68 -10 15 C-6.7 15 -3.4 15 0 15 C-1.32 14.34 -2.64 13.68 -4 13 C-3.34 13 -2.68 13 -2 13 C-2 12.34 -2 11.68 -2 11 C1.462 8 1.462 8 4 8 C4 7.34 4 6.68 4 6 C4.99 5.67 5.98 5.34 7 5 C7.33 5.99 7.66 6.98 8 8 C8.124 7.402 8.248 6.804 8.375 6.188 C9 4 9 4 11 1 Z M2 11 C2 11.66 2 12.32 2 13 C2.66 13 3.32 13 4 13 C4 12.34 4 11.68 4 11 C3.34 11 2.68 11 2 11 Z " fill="#649C00" transform="translate(96,198)"/>
<path d="M0 0 C1.98 0 3.96 0 6 0 C6 0.33 6 0.66 6 1 C4.02 1 2.04 1 0 1 C0 0.67 0 0.34 0 0 Z M11 1 C12 4 12 4 10.562 7.188 C9.789 8.58 9.789 8.58 9 10 C7.68 9.67 6.36 9.34 5 9 C5.99 8.67 6.98 8.34 8 8 C8.601 6.098 8.601 6.098 9 4 C9.66 3.01 10.32 2.02 11 1 Z M5 13 C7 14 7 14 7 14 Z " fill="#487100" transform="translate(96,198)"/>
<path d="M0 0 C0.99 0 1.98 0 3 0 C3.33 1.65 3.66 3.3 4 5 C2.02 5.99 2.02 5.99 0 7 C-1 6 -1 6 -1.125 3.5 C-1 1 -1 1 0 0 Z " fill="#6FAF00" transform="translate(236,178)"/>
</svg>