
<!-- Generator: visioncortex VTracer 0.6.4 -->
<svg version="1.1" xmlns="http://www.w3.org/2000/svg" viewBox="0 0 512 512" preserveAspectRatio="xMidYMid meet">
<path d="M0 0 C0.876 0.002 1.752 0.004 2.654 0.007 C52.155 0.201 101.492 15.57 141.375 45.312 C141.979 45.761 142.583 46.209 143.205 46.671 C152.109 53.339 160.361 60.606 168.375 68.312 C168.866 68.782 169.358 69.251 169.864 69.735 C184.573 83.851 197.359 100.539 207.375 118.312 C208.042 119.495 208.042 119.495 208.722 120.701 C224.16 148.414 234.289 177.82 238.375 209.312 C238.469 209.99 238.564 210.667 238.661 211.365 C245.771 270.123 229.799 332.811 194.375 380.312 C193.927 380.916 193.478 381.52 193.016 382.143 C186.348 391.046 179.082 399.299 171.375 407.312 C170.671 408.049 170.671 408.049 169.953 408.801 C155.836 423.511 139.149 436.296 121.375 446.312 C120.193 446.979 120.193 446.979 118.987 447.66 C91.273 463.098 61.868 473.226 30.375 477.312 C29.698 477.407 29.021 477.501 28.324 477.598 C19.304 478.69 10.197 478.555 1.125 478.562 C-0.214 478.564 -0.214 478.564 -1.581 478.566 C-15.155 478.555 -28.275 477.943 -41.625 475.312 C-42.849 475.088 -42.849 475.088 -44.098 474.858 C-55.207 472.814 -65.967 470.05 -76.625 466.312 C-77.421 466.034 -78.218 465.756 -79.038 465.469 C-121.075 450.573 -160.469 424.099 -187.625 388.312 C-188.058 387.746 -188.49 387.179 -188.936 386.595 C-195.352 378.152 -201.412 369.562 -206.625 360.312 C-207.292 359.13 -207.292 359.13 -207.972 357.924 C-223.41 330.211 -233.539 300.805 -237.625 269.312 C-237.719 268.635 -237.814 267.958 -237.911 267.26 C-245.031 208.418 -229.09 145.869 -193.625 98.312 C-192.952 97.407 -192.952 97.407 -192.266 96.482 C-185.598 87.579 -178.332 79.326 -170.625 71.312 C-169.921 70.576 -169.921 70.576 -169.203 69.824 C-143.826 43.381 -111.121 24.19 -76.625 12.312 C-75.597 11.948 -75.597 11.948 -74.548 11.576 C-66.069 8.59 -57.473 6.501 -48.688 4.625 C-47.277 4.321 -47.277 4.321 -45.839 4.011 C-30.578 0.895 -15.536 -0.069 0 0 Z " fill="#382B72" transform="translate(255.625,16.6875)"/>
<path d="M0 0 C18.216 14.913 33.315 33.007 43.715 54.223 C44.056 54.91 44.398 55.598 44.749 56.306 C46.144 59.589 47.02 61.998 46.14 65.528 C45.038 67.977 43.786 70.234 42.402 72.535 C41.933 73.364 41.464 74.193 40.981 75.047 C39.595 77.463 38.167 79.846 36.715 82.223 C36.157 83.144 36.157 83.144 35.588 84.083 C30.945 91.644 25.488 98.502 19.715 105.223 C18.956 106.129 18.196 107.035 17.414 107.969 C0.626 127.34 -23.241 141.441 -49.12 143.442 C-80.584 144.727 -105.68 134.888 -128.759 113.663 C-141.573 101.57 -151.255 86.716 -159.266 71.128 C-160.366 69 -160.366 69 -162.254 66.258 C-163.828 61.625 -162.266 58.543 -160.285 54.223 C-158.725 51.058 -157.017 48.01 -155.223 44.973 C-154.739 44.147 -154.255 43.322 -153.756 42.471 C-147.134 31.379 -139.136 21.626 -130.285 12.223 C-129.675 11.548 -129.066 10.874 -128.438 10.18 C-95.046 -25.339 -38.567 -29.392 0 0 Z " fill="#382B72" transform="translate(314.28515625,229.77734375)"/>
<path d="M0 0 C14.168 11.592 20.556 27.438 22.59 45.168 C23.331 60.962 16.763 76.786 6.688 88.688 C-4.66 100.262 -19.361 107.741 -35.68 107.992 C-53.611 108.048 -68.363 103.352 -81.688 90.75 C-93.321 78.683 -99.306 64.027 -100.062 47.25 C-99.294 30.859 -93.328 15.51 -81.688 3.75 C-57.316 -17.55 -26.123 -18.914 0 0 Z " fill="#392B72" transform="translate(294.6875,71.25)"/>
<path d="M0 0 C1.271 -0.006 2.543 -0.012 3.853 -0.019 C5.236 -0.005 6.62 0.01 8.004 0.025 C9.426 0.027 10.848 0.028 12.27 0.028 C15.246 0.031 18.223 0.047 21.199 0.074 C25.015 0.108 28.83 0.116 32.646 0.114 C35.58 0.115 38.515 0.126 41.45 0.14 C42.857 0.147 44.264 0.151 45.671 0.152 C47.636 0.156 49.601 0.176 51.566 0.195 C53.244 0.207 53.244 0.207 54.955 0.218 C57.719 0.486 57.719 0.486 60.719 2.486 C61.109 5.547 61.363 7.57 59.543 10.156 C57.007 12.004 55.267 11.847 52.146 11.826 C50.434 11.826 50.434 11.826 48.688 11.826 C46.841 11.803 46.841 11.803 44.957 11.779 C43.065 11.772 43.065 11.772 41.136 11.766 C37.787 11.752 34.438 11.725 31.089 11.692 C27.671 11.661 24.252 11.647 20.834 11.632 C14.128 11.599 7.424 11.549 0.719 11.486 C0.481 43.623 0.325 75.759 0.284 107.896 C0.279 111.695 0.273 115.494 0.267 119.292 C0.266 120.048 0.264 120.805 0.263 121.584 C0.242 133.81 0.164 146.035 0.066 158.261 C-0.034 170.817 -0.073 183.372 -0.056 195.928 C-0.047 203.67 -0.086 211.408 -0.185 219.149 C-0.256 225.097 -0.242 231.042 -0.198 236.989 C-0.192 239.421 -0.214 241.852 -0.266 244.283 C-0.92 258.029 -0.92 258.029 5.175 269.721 C8.458 272.624 11.958 275.01 15.715 277.253 C18.785 279.142 21.525 281.365 24.344 283.611 C25.389 284.409 26.434 285.207 27.511 286.029 C32.703 289.994 37.822 294.052 42.952 298.095 C45.29 299.936 47.63 301.775 49.97 303.613 C51.721 304.988 53.472 306.364 55.222 307.74 C57.541 309.562 59.862 311.382 62.183 313.201 C67.535 317.396 72.875 321.604 78.174 325.867 C84.801 331.198 91.513 336.401 98.29 341.542 C104.054 345.934 109.692 350.469 115.279 355.085 C117.08 356.568 118.898 358.027 120.719 359.486 C121.325 359.999 121.932 360.512 122.557 361.041 C124.544 362.694 124.544 362.694 127.719 364.486 C132.588 363.869 136.549 359.573 140.219 356.486 C141.652 355.3 143.087 354.115 144.523 352.931 C145.233 352.345 145.943 351.759 146.675 351.155 C149.52 348.831 152.421 346.586 155.344 344.361 C159.806 340.954 164.245 337.521 168.656 334.048 C169.238 333.591 169.819 333.133 170.418 332.661 C171.596 331.733 172.774 330.805 173.952 329.877 C176.872 327.577 179.796 325.282 182.719 322.986 C183.885 322.069 185.052 321.153 186.219 320.236 C193.219 314.736 193.219 314.736 194.968 313.361 C196.136 312.444 197.303 311.526 198.471 310.609 C201.373 308.327 204.277 306.048 207.183 303.771 C212.536 299.575 217.877 295.366 223.176 291.103 C230.008 285.607 236.918 280.229 243.909 274.938 C244.58 274.429 245.25 273.92 245.941 273.396 C246.819 272.733 246.819 272.733 247.715 272.056 C248.376 271.538 249.037 271.02 249.719 270.486 C250.734 269.84 251.75 269.194 252.796 268.528 C254.781 266.851 255.612 265.891 256.278 263.359 C256.494 260.637 256.516 257.971 256.478 255.242 C256.487 254.2 256.496 253.159 256.506 252.086 C256.53 248.591 256.51 245.097 256.491 241.602 C256.5 239.099 256.51 236.595 256.524 234.092 C256.546 228.701 256.551 223.309 256.538 217.917 C256.52 210.122 256.535 202.327 256.558 194.531 C256.595 181.884 256.605 169.236 256.598 156.588 C256.592 144.303 256.598 132.017 256.621 119.732 C256.623 118.596 256.623 118.596 256.625 117.437 C256.632 113.637 256.64 109.837 256.647 106.038 C256.709 74.52 256.728 43.003 256.719 11.486 C255.661 11.499 255.661 11.499 254.581 11.513 C247.931 11.593 241.281 11.654 234.63 11.693 C231.211 11.714 227.792 11.742 224.373 11.788 C220.442 11.839 216.51 11.859 212.578 11.876 C210.739 11.907 210.739 11.907 208.862 11.939 C207.721 11.939 206.58 11.94 205.405 11.94 C204.401 11.949 203.398 11.958 202.363 11.967 C198.988 11.353 197.785 10.176 195.719 7.486 C195.781 4.861 195.781 4.861 196.719 2.486 C200.235 0.141 201.706 0.224 205.871 0.195 C207.773 0.176 207.773 0.176 209.714 0.157 C211.099 0.154 212.485 0.151 213.871 0.15 C215.292 0.143 216.713 0.137 218.134 0.13 C221.112 0.118 224.09 0.114 227.069 0.115 C230.883 0.115 234.697 0.088 238.512 0.054 C241.447 0.031 244.381 0.027 247.316 0.028 C248.722 0.026 250.129 0.017 251.535 0.002 C253.502 -0.018 255.47 -0.01 257.437 0 C258.556 -0.003 259.675 -0.006 260.828 -0.009 C263.719 0.486 263.719 0.486 265.864 1.862 C268.775 5.98 268.294 10.033 268.274 14.96 C268.285 16.038 268.296 17.117 268.307 18.228 C268.34 21.855 268.344 25.481 268.347 29.107 C268.364 31.703 268.383 34.298 268.402 36.893 C268.452 43.953 268.472 51.013 268.486 58.073 C268.495 62.484 268.51 66.894 268.526 71.304 C268.57 83.52 268.607 95.736 268.617 107.951 C268.618 108.733 268.618 109.515 268.619 110.32 C268.62 111.905 268.621 113.49 268.623 115.075 C268.623 115.861 268.624 116.648 268.625 117.458 C268.625 118.246 268.626 119.034 268.626 119.845 C268.638 132.6 268.7 145.355 268.784 158.109 C268.869 171.211 268.914 184.312 268.916 197.414 C268.919 204.768 268.938 212.12 269.004 219.474 C269.065 226.394 269.069 233.312 269.036 240.232 C269.033 242.769 269.048 245.306 269.084 247.843 C269.35 268.008 269.35 268.008 265.33 273.15 C262.576 275.701 259.949 277.595 256.719 279.486 C255.294 280.588 253.88 281.705 252.488 282.849 C251.172 283.837 249.853 284.82 248.531 285.798 C242.748 290.147 237.063 294.585 231.469 299.173 C225.697 303.901 219.851 308.505 213.922 313.033 C206.282 318.868 198.752 324.845 191.261 330.869 C185.33 335.639 179.344 340.322 173.281 344.923 C167.675 349.179 162.162 353.524 156.719 357.986 C154.055 360.157 151.388 362.322 148.719 364.486 C147.974 365.091 147.23 365.697 146.464 366.32 C144.186 368.162 141.892 369.983 139.594 371.798 C138.895 372.368 138.196 372.938 137.476 373.525 C134.488 375.859 132.378 377.346 128.633 378.142 C124.711 377.259 122.202 375.227 119.219 372.673 C117.979 371.656 116.74 370.639 115.5 369.623 C114.872 369.1 114.244 368.577 113.597 368.038 C110.682 365.63 107.7 363.311 104.719 360.986 C103.55 360.068 102.382 359.15 101.215 358.232 C98.896 356.41 96.575 354.59 94.254 352.771 C88.902 348.576 83.562 344.368 78.263 340.105 C72.332 335.333 66.345 330.65 60.281 326.048 C53.902 321.206 47.654 316.227 41.459 311.152 C37.408 307.84 33.317 304.596 29.156 301.423 C23.841 297.368 18.608 293.224 13.399 289.034 C10.214 286.475 7.019 283.931 3.797 281.419 C3.164 280.926 2.532 280.433 1.88 279.925 C0.684 278.994 -0.515 278.065 -1.715 277.138 C-3.253 275.941 -4.768 274.714 -6.281 273.486 C-6.991 272.994 -7.701 272.502 -8.433 271.995 C-11.399 267.97 -10.832 263.843 -10.789 258.971 C-10.796 257.889 -10.802 256.806 -10.808 255.69 C-10.824 252.05 -10.812 248.41 -10.799 244.769 C-10.804 242.164 -10.812 239.559 -10.82 236.954 C-10.838 230.606 -10.834 224.258 -10.823 217.91 C-10.814 212.751 -10.812 207.592 -10.817 202.434 C-10.817 201.7 -10.818 200.966 -10.819 200.21 C-10.82 198.72 -10.821 197.229 -10.823 195.739 C-10.834 181.756 -10.821 167.774 -10.799 153.792 C-10.781 141.791 -10.785 129.789 -10.803 117.788 C-10.824 103.856 -10.833 89.925 -10.821 75.993 C-10.819 74.508 -10.818 73.023 -10.817 71.538 C-10.816 70.807 -10.816 70.076 -10.815 69.323 C-10.811 64.17 -10.817 59.017 -10.827 53.863 C-10.839 46.929 -10.83 39.996 -10.807 33.061 C-10.802 30.512 -10.803 27.963 -10.812 25.413 C-10.823 21.942 -10.809 18.472 -10.789 15 C-10.803 13.475 -10.803 13.475 -10.816 11.919 C-10.74 5.137 -10.74 5.137 -8.43 1.86 C-5.504 -0.011 -3.464 -0.009 0 0 Z " fill="#D84C90" transform="translate(127.281494140625,88.51416015625)"/>
<path d="M0 0 C11.902 10.006 19.533 22.57 22 38 C23.065 55.553 18.935 71.285 7.375 84.875 C-4.201 96.803 -18.773 102.783 -35.188 103.25 C-50.994 103.052 -65.289 96.67 -76.598 85.66 C-87.863 73.186 -92.373 58.424 -92.211 41.879 C-91.324 25.578 -83.57 12.936 -72 2 C-51.61 -15.56 -21.459 -15.536 0 0 Z " fill="#382B72" transform="translate(291,246)"/>
<path d="M0 0 C18.867 16.463 34.364 39.019 43.59 62.344 C43.748 66.74 41.741 70.123 39.812 74 C39.402 74.842 38.991 75.685 38.568 76.553 C30.122 93.535 18.714 108.355 5.688 122.062 C5.118 122.697 4.548 123.331 3.961 123.984 C-14.094 143.428 -42.065 155.045 -68.242 156.242 C-98.309 156.992 -125.445 145.477 -147.211 125.004 C-148.583 123.695 -149.948 122.379 -151.312 121.062 C-151.957 120.47 -152.602 119.877 -153.266 119.266 C-165.391 107.82 -174.418 92.701 -182.25 78.125 C-182.817 77.078 -182.817 77.078 -183.395 76.011 C-188.893 65.538 -188.893 65.538 -187.582 59.949 C-171.769 25.229 -145.752 -7.757 -109.239 -21.731 C-70.204 -35.683 -31.126 -26.287 0 0 Z M-143.312 13.062 C-143.966 13.652 -144.62 14.241 -145.293 14.848 C-155.076 24.026 -162.634 35.488 -169.375 47 C-169.828 47.768 -170.281 48.536 -170.747 49.327 C-172.009 51.543 -173.183 53.777 -174.312 56.062 C-174.683 56.802 -175.054 57.541 -175.436 58.302 C-176.819 61.555 -177.614 63.868 -176.732 67.358 C-175.637 69.815 -174.386 72.07 -173 74.375 C-172.531 75.204 -172.062 76.033 -171.578 76.887 C-170.193 79.303 -168.765 81.686 -167.312 84.062 C-166.755 84.984 -166.755 84.984 -166.186 85.923 C-161.543 93.484 -156.079 100.337 -150.312 107.062 C-149.592 107.918 -148.871 108.774 -148.129 109.656 C-131.489 128.877 -107.121 143.277 -81.468 145.285 C-49.64 146.552 -25.393 136.929 -1.871 115.519 C10.991 103.499 20.669 88.534 28.668 72.968 C29.688 71.062 29.688 71.062 31.656 68.098 C33.23 63.465 31.669 60.383 29.688 56.062 C28.127 52.898 26.419 49.85 24.625 46.812 C24.141 45.987 23.657 45.161 23.159 44.311 C16.537 33.219 8.539 23.465 -0.312 14.062 C-0.872 13.45 -1.431 12.838 -2.008 12.207 C-17.261 -3.894 -36.871 -12.679 -58.312 -16.938 C-59.447 -17.164 -60.581 -17.391 -61.75 -17.625 C-93.36 -20.398 -120.492 -8.454 -143.312 13.062 Z " fill="#FAAF85" transform="translate(328.3125,227.9375)"/>
<path d="M0 0 C1.117 0.002 2.234 0.004 3.385 0.007 C4.646 0.007 5.907 0.007 7.207 0.007 C8.593 0.012 9.98 0.017 11.367 0.023 C12.778 0.024 14.189 0.026 15.6 0.027 C19.32 0.031 23.041 0.041 26.761 0.052 C30.555 0.062 34.349 0.066 38.142 0.071 C45.591 0.082 53.039 0.099 60.488 0.12 C61.051 2.058 61.051 2.058 61.488 4.12 C61.158 4.45 60.828 4.78 60.488 5.12 C41.018 5.12 21.548 5.12 1.488 5.12 C1.488 90.59 1.488 176.06 1.488 264.12 C2.808 264.78 4.128 265.44 5.488 266.12 C7.647 267.735 9.761 269.372 11.863 271.058 C13.122 272.058 14.381 273.058 15.64 274.058 C16.281 274.568 16.921 275.079 17.581 275.605 C19.948 277.486 22.328 279.35 24.708 281.214 C29.477 284.947 34.224 288.705 38.943 292.501 C44.875 297.273 50.861 301.956 56.926 306.558 C63.213 311.33 69.366 316.239 75.468 321.245 C80.233 325.139 85.083 328.904 89.988 332.62 C96.34 337.434 102.559 342.384 108.723 347.434 C114.877 352.465 121.152 357.322 127.488 362.12 C128.163 362.747 128.839 363.373 129.535 364.019 C131.452 365.374 131.452 365.374 133.738 364.714 C137.684 362.427 141.023 359.572 144.488 356.62 C146.014 355.341 147.541 354.064 149.07 352.788 C149.821 352.161 150.572 351.534 151.346 350.887 C155.254 347.664 159.285 344.61 163.316 341.542 C166.709 338.951 170.071 336.324 173.426 333.683 C174.007 333.225 174.589 332.767 175.188 332.295 C176.366 331.368 177.544 330.44 178.722 329.511 C181.642 327.212 184.565 324.916 187.488 322.62 C188.655 321.704 189.821 320.787 190.988 319.87 C225.988 292.37 225.988 292.37 227.739 290.995 C228.903 290.08 230.067 289.165 231.231 288.25 C234.183 285.93 237.136 283.612 240.093 281.3 C241.288 280.365 242.482 279.43 243.676 278.495 C244.252 278.044 244.829 277.593 245.423 277.129 C250.155 273.414 254.782 269.585 259.379 265.702 C261.488 264.12 261.488 264.12 263.488 264.12 C263.488 178.65 263.488 93.18 263.488 5.12 C244.018 5.12 224.548 5.12 204.488 5.12 C204.158 3.47 203.828 1.82 203.488 0.12 C211.815 0.097 220.143 0.079 228.47 0.068 C232.336 0.063 236.203 0.056 240.069 0.045 C243.797 0.034 247.525 0.028 251.253 0.025 C252.679 0.024 254.104 0.02 255.53 0.015 C257.52 0.007 259.51 0.007 261.499 0.007 C262.634 0.005 263.769 0.002 264.938 0 C267.488 0.12 267.488 0.12 268.488 1.12 C268.592 2.526 268.626 3.937 268.633 5.347 C268.64 6.264 268.647 7.181 268.654 8.126 C268.657 9.146 268.659 10.165 268.662 11.216 C268.669 12.29 268.675 13.364 268.682 14.47 C268.702 18.099 268.715 21.728 268.729 25.357 C268.741 27.947 268.754 30.537 268.768 33.126 C268.81 41.658 268.84 50.19 268.867 58.722 C268.869 59.447 268.872 60.172 268.874 60.919 C268.919 75.314 268.958 89.709 268.985 104.104 C268.991 107.27 268.997 110.437 269.003 113.604 C269.005 114.785 269.005 114.785 269.008 115.989 C269.033 128.737 269.09 141.484 269.159 154.231 C269.23 167.313 269.27 180.395 269.281 193.478 C269.289 200.825 269.309 208.172 269.364 215.519 C269.416 222.432 269.427 229.344 269.411 236.257 C269.412 238.795 269.426 241.334 269.455 243.872 C269.493 247.337 269.481 250.798 269.457 254.263 C269.479 255.269 269.502 256.275 269.525 257.312 C269.454 261.339 269.364 264.035 266.781 267.237 C264.76 269.03 262.71 270.587 260.488 272.12 C259.172 273.139 257.859 274.162 256.551 275.191 C255.198 276.211 253.844 277.229 252.488 278.245 C246.649 282.663 240.901 287.167 235.238 291.808 C230.52 295.673 225.776 299.485 220.926 303.183 C216.309 306.703 211.759 310.291 207.238 313.933 C201.905 318.227 196.505 322.42 191.051 326.558 C185.445 330.813 179.93 335.157 174.488 339.62 C168.36 344.647 162.13 349.515 155.8 354.285 C152.216 356.994 148.698 359.75 145.258 362.64 C144.581 363.203 143.904 363.766 143.207 364.347 C141.926 365.419 140.655 366.504 139.396 367.603 C135.22 371.084 135.22 371.084 131.968 371.245 C128.596 369.716 125.88 367.59 123.051 365.245 C121.802 364.237 120.553 363.229 119.304 362.222 C118.353 361.447 118.353 361.447 117.383 360.656 C114.446 358.275 111.466 355.949 108.488 353.62 C107.32 352.703 106.152 351.785 104.984 350.866 C102.665 349.044 100.345 347.224 98.023 345.405 C92.671 341.21 87.332 337.002 82.033 332.739 C76.101 327.968 70.115 323.285 64.051 318.683 C57.672 313.84 51.424 308.862 45.229 303.787 C41.178 300.474 37.087 297.23 32.926 294.058 C27.613 290.005 22.383 285.861 17.175 281.675 C12.077 277.581 6.943 273.535 1.791 269.509 C-2.411 266.221 -2.411 266.221 -3.512 265.12 C-3.609 263.709 -3.638 262.292 -3.638 260.877 C-3.64 259.956 -3.643 259.035 -3.646 258.086 C-3.643 257.063 -3.641 256.039 -3.639 254.984 C-3.641 253.906 -3.642 252.828 -3.644 251.717 C-3.648 248.074 -3.645 244.431 -3.641 240.788 C-3.643 238.189 -3.645 235.589 -3.647 232.99 C-3.651 226.644 -3.65 220.299 -3.647 213.953 C-3.645 208.798 -3.645 203.643 -3.646 198.488 C-3.646 197.39 -3.646 197.39 -3.646 196.269 C-3.647 194.782 -3.647 193.295 -3.647 191.807 C-3.65 177.844 -3.647 163.88 -3.641 149.917 C-3.637 137.922 -3.638 125.928 -3.642 113.934 C-3.648 100.022 -3.65 86.11 -3.647 72.198 C-3.646 70.716 -3.646 69.234 -3.646 67.752 C-3.646 67.023 -3.645 66.294 -3.645 65.542 C-3.644 60.391 -3.646 55.239 -3.648 50.087 C-3.651 43.16 -3.649 36.232 -3.643 29.305 C-3.642 26.754 -3.642 24.204 -3.645 21.653 C-3.647 18.187 -3.644 14.722 -3.639 11.256 C-3.641 10.233 -3.643 9.209 -3.646 8.154 C-3.643 7.233 -3.641 6.312 -3.638 5.363 C-3.638 4.562 -3.637 3.761 -3.637 2.936 C-3.438 0.047 -2.901 0.139 0 0 Z " fill="#EB8BB4" transform="translate(123.51197814941406,91.87974548339844)"/>
<path d="M0 0 C14.168 11.592 20.556 27.438 22.59 45.168 C23.331 60.962 16.763 76.786 6.688 88.688 C-4.66 100.262 -19.361 107.741 -35.68 107.992 C-53.611 108.048 -68.363 103.352 -81.688 90.75 C-93.321 78.683 -99.306 64.027 -100.062 47.25 C-99.294 30.859 -93.328 15.51 -81.688 3.75 C-57.316 -17.55 -26.123 -18.914 0 0 Z M-77.688 14.75 C-88.017 27.413 -89.62 41.003 -88.688 56.75 C-88.145 60.381 -87.206 63.417 -85.688 66.75 C-85.309 67.625 -84.93 68.501 -84.539 69.402 C-77.702 83.491 -66.631 91.432 -52.289 96.617 C-39.63 100.053 -25.747 97.946 -14.125 92.25 C-2.078 85.175 6.417 74.274 10.473 60.934 C13.76 46.651 11.52 32.492 4.062 20 C-3.881 8.392 -14.71 0.814 -28.438 -2.75 C-47.656 -5.777 -64.445 0.739 -77.688 14.75 Z " fill="#D2D1D4" transform="translate(294.6875,71.25)"/>
<path d="M0 0 C11.902 10.006 19.533 22.57 22 38 C23.065 55.553 18.935 71.285 7.375 84.875 C-4.201 96.803 -18.773 102.783 -35.188 103.25 C-50.994 103.052 -65.289 96.67 -76.598 85.66 C-87.863 73.186 -92.373 58.424 -92.211 41.879 C-91.324 25.578 -83.57 12.936 -72 2 C-51.61 -15.56 -21.459 -15.536 0 0 Z M-71 15 C-79.699 26.435 -83.197 38.215 -81.598 52.625 C-79.064 66.298 -72.819 76.572 -61.551 84.785 C-49.604 92.418 -36.321 94.032 -22.488 91.309 C-15.931 89.302 -10.342 86.282 -5 82 C-4.312 81.448 -3.623 80.897 -2.914 80.328 C5.054 73.184 10.461 62.449 11.848 51.84 C12.614 37.557 9.105 25.171 0 14 C-9.453 3.894 -22.097 -0.775 -35.75 -1.25 C-49.262 -1.066 -61.946 5.106 -71 15 Z " fill="#FAAF85" transform="translate(291,246)"/>
<path d="M0 0 C18.867 16.463 34.364 39.019 43.59 62.344 C43.748 66.74 41.741 70.123 39.812 74 C39.402 74.842 38.991 75.685 38.568 76.553 C30.122 93.535 18.714 108.355 5.688 122.062 C5.118 122.697 4.548 123.331 3.961 123.984 C-14.094 143.428 -42.065 155.045 -68.242 156.242 C-98.309 156.992 -125.445 145.477 -147.211 125.004 C-148.583 123.695 -149.948 122.379 -151.312 121.062 C-151.957 120.47 -152.602 119.877 -153.266 119.266 C-165.391 107.82 -174.418 92.701 -182.25 78.125 C-182.817 77.078 -182.817 77.078 -183.395 76.011 C-188.893 65.538 -188.893 65.538 -187.582 59.949 C-171.769 25.229 -145.752 -7.757 -109.239 -21.731 C-70.204 -35.683 -31.126 -26.287 0 0 Z M-149.722 9.433 C-161.586 21.588 -170.841 35.139 -178.875 50.062 C-179.305 50.852 -179.735 51.641 -180.178 52.454 C-182.539 56.969 -184.301 60.863 -184.312 66.062 C-183.291 68.838 -182.28 71.129 -180.875 73.688 C-180.509 74.383 -180.143 75.078 -179.765 75.794 C-171.701 90.897 -162.097 104.617 -150.312 117.062 C-149.469 117.97 -148.626 118.877 -147.758 119.812 C-129.833 138.516 -104.774 151.347 -78.621 152.398 C-48.624 152.856 -22.364 143.639 -0.312 123.062 C0.219 122.578 0.751 122.094 1.299 121.595 C14.844 109.189 25.11 94.229 33.688 78.062 C34.604 76.436 34.604 76.436 35.539 74.777 C36.104 73.737 36.668 72.697 37.25 71.625 C37.746 70.719 38.243 69.813 38.754 68.879 C40.47 63.701 39.053 59.541 36.789 54.785 C35.978 53.224 35.152 51.671 34.312 50.125 C33.867 49.295 33.421 48.465 32.962 47.611 C25.423 33.845 16.222 21.662 5.688 10.062 C5.075 9.378 4.463 8.694 3.832 7.988 C-15.731 -12.734 -43.323 -24.119 -71.508 -24.934 C-101.608 -25.266 -128.651 -11.536 -149.722 9.433 Z " fill="#F88742" transform="translate(328.3125,227.9375)"/>
<path d="M0 0 C5.304 2.652 9.593 6.039 14.107 9.875 C17.965 13.15 21.887 16.322 25.875 19.438 C26.46 19.895 27.044 20.352 27.647 20.823 C28.837 21.752 30.027 22.681 31.218 23.609 C34.151 25.898 37.075 28.2 40 30.5 C41.167 31.417 42.333 32.333 43.5 33.25 C106.5 82.75 106.5 82.75 108.252 84.127 C109.411 85.037 110.569 85.947 111.728 86.857 C114.77 89.247 117.812 91.638 120.852 94.031 C121.483 94.528 122.115 95.025 122.766 95.537 C123.972 96.486 125.177 97.435 126.383 98.385 C127.919 99.593 129.459 100.797 131 102 C131.668 102.598 132.335 103.196 133.023 103.812 C135.93 105.559 137.658 105.517 141 105 C143.387 103.473 145.369 102.012 147.5 100.188 C148.739 99.17 149.979 98.153 151.219 97.137 C151.847 96.614 152.474 96.091 153.121 95.552 C156.036 93.144 159.019 90.825 162 88.5 C163.167 87.584 164.334 86.667 165.5 85.75 C172.5 80.25 172.5 80.25 174.25 78.875 C175.417 77.958 176.585 77.04 177.752 76.123 C180.655 73.842 183.559 71.562 186.465 69.285 C191.817 65.09 197.156 60.882 202.455 56.619 C208.387 51.848 214.373 47.165 220.438 42.562 C226.816 37.72 233.064 32.741 239.259 27.667 C244.324 23.525 249.478 19.524 254.684 15.562 C257.165 13.662 259.606 11.716 262.035 9.75 C263.056 8.924 263.056 8.924 264.097 8.082 C265.423 7.007 266.745 5.928 268.065 4.845 C270.692 2.715 272.762 1.079 276 0 C276.445 3.109 276.445 3.109 276 7 C273.99 9.553 271.485 11.34 268.875 13.25 C268.149 13.809 267.424 14.367 266.676 14.943 C265.181 16.092 263.68 17.233 262.172 18.364 C259.608 20.295 257.092 22.28 254.579 24.274 C252.868 25.631 251.15 26.977 249.43 28.32 C245.947 31.04 242.473 33.769 239 36.5 C237.833 37.417 236.667 38.333 235.5 39.25 C234.923 39.704 234.345 40.158 233.75 40.625 C213.333 56.667 192.917 72.708 172.5 88.75 C171.922 89.204 171.344 89.658 170.749 90.126 C169.587 91.039 168.425 91.952 167.263 92.864 C163.653 95.699 160.047 98.539 156.443 101.382 C154.677 102.771 152.905 104.154 151.133 105.535 C149.251 107.015 147.386 108.517 145.555 110.059 C144.538 110.896 144.538 110.896 143.5 111.75 C142.68 112.454 142.68 112.454 141.844 113.172 C138.917 114.486 137.033 113.883 134 113 C131.387 111.172 131.387 111.172 128.688 108.75 C127.637 107.831 126.583 106.916 125.527 106.004 C124.963 105.516 124.398 105.027 123.816 104.524 C120.556 101.788 117.147 99.249 113.75 96.688 C108.079 92.393 102.498 88.013 97 83.5 C91.581 79.054 86.087 74.733 80.5 70.5 C74.232 65.75 68.099 60.863 62.02 55.875 C57.255 51.981 52.405 48.216 47.5 44.5 C41.143 39.683 34.92 34.729 28.751 29.675 C24.594 26.275 20.391 22.95 16.125 19.688 C15.092 18.891 14.06 18.094 12.996 17.273 C11.012 15.768 9.004 14.293 6.973 12.852 C0.286 7.956 0.286 7.956 -0.613 4.949 C-0.625 3 -0.625 3 0 0 Z " fill="#291B4A" transform="translate(118,360)"/>
<path d="M0 0 C3 0.25 3 0.25 5 2.25 C5.202 4.876 5.278 7.397 5.267 10.025 C5.272 10.837 5.276 11.65 5.281 12.486 C5.294 15.223 5.292 17.96 5.291 20.697 C5.297 22.653 5.303 24.609 5.311 26.565 C5.329 31.889 5.333 37.214 5.335 42.538 C5.336 46.977 5.344 51.415 5.351 55.854 C5.367 66.322 5.372 76.79 5.371 87.258 C5.369 98.071 5.391 108.884 5.422 119.697 C5.448 128.969 5.459 138.24 5.458 147.512 C5.457 153.054 5.463 158.597 5.484 164.14 C5.503 169.351 5.504 174.562 5.489 179.773 C5.487 181.689 5.492 183.606 5.504 185.522 C5.519 188.131 5.51 190.739 5.494 193.348 C5.505 194.112 5.515 194.876 5.526 195.664 C5.482 198.989 5.426 200.784 3.137 203.291 C1 204.25 1 204.25 -1.688 203.5 C-4 202.25 -4 202.25 -5 201.25 C-5.102 198.687 -5.139 196.152 -5.134 193.588 C-5.136 192.776 -5.138 191.964 -5.141 191.128 C-5.147 188.385 -5.146 185.643 -5.145 182.901 C-5.148 180.943 -5.152 178.986 -5.155 177.028 C-5.164 171.696 -5.167 166.363 -5.167 161.031 C-5.168 156.587 -5.172 152.143 -5.175 147.7 C-5.184 137.221 -5.186 126.742 -5.185 116.262 C-5.185 105.434 -5.195 94.606 -5.211 83.777 C-5.224 74.496 -5.229 65.216 -5.229 55.935 C-5.229 50.385 -5.231 44.835 -5.242 39.285 C-5.252 34.067 -5.252 28.85 -5.245 23.632 C-5.243 21.712 -5.246 19.792 -5.252 17.873 C-5.26 15.261 -5.255 12.65 -5.247 10.039 C-5.252 9.271 -5.258 8.503 -5.263 7.712 C-5.215 0.435 -5.215 0.435 0 0 Z " fill="#E44990" transform="translate(430,146.75)"/>
<path d="M0 0 C3 0.25 3 0.25 5 2.25 C5.202 4.876 5.278 7.397 5.267 10.025 C5.272 10.837 5.276 11.65 5.281 12.486 C5.294 15.223 5.292 17.96 5.291 20.697 C5.297 22.653 5.303 24.609 5.311 26.565 C5.329 31.889 5.333 37.214 5.335 42.538 C5.336 46.977 5.344 51.415 5.351 55.854 C5.367 66.322 5.372 76.79 5.371 87.258 C5.369 98.071 5.391 108.884 5.422 119.697 C5.448 128.969 5.459 138.24 5.458 147.512 C5.457 153.054 5.463 158.597 5.484 164.14 C5.503 169.351 5.504 174.562 5.489 179.773 C5.487 181.689 5.492 183.606 5.504 185.522 C5.519 188.131 5.51 190.739 5.494 193.348 C5.505 194.112 5.515 194.876 5.526 195.664 C5.482 198.989 5.426 200.784 3.137 203.291 C1 204.25 1 204.25 -1.688 203.5 C-4 202.25 -4 202.25 -5 201.25 C-5.102 198.687 -5.139 196.152 -5.134 193.588 C-5.136 192.776 -5.138 191.964 -5.141 191.128 C-5.147 188.385 -5.146 185.643 -5.145 182.901 C-5.148 180.943 -5.152 178.986 -5.155 177.028 C-5.164 171.696 -5.167 166.363 -5.167 161.031 C-5.168 156.587 -5.172 152.143 -5.175 147.7 C-5.184 137.221 -5.186 126.742 -5.185 116.262 C-5.185 105.434 -5.195 94.606 -5.211 83.777 C-5.224 74.496 -5.229 65.216 -5.229 55.935 C-5.229 50.385 -5.231 44.835 -5.242 39.285 C-5.252 34.067 -5.252 28.85 -5.245 23.632 C-5.243 21.712 -5.246 19.792 -5.252 17.873 C-5.26 15.261 -5.255 12.65 -5.247 10.039 C-5.252 9.271 -5.258 8.503 -5.263 7.712 C-5.215 0.435 -5.215 0.435 0 0 Z " fill="#E44990" transform="translate(82,146.75)"/>
<path d="M0 0 C1.576 1.339 3.138 2.693 4.688 4.062 C5.506 4.761 6.325 5.46 7.168 6.18 C23.38 20.305 34.66 37.219 44.688 56.062 C45.286 57.06 45.884 58.058 46.5 59.086 C48.521 64.151 47.199 67.812 45.191 72.719 C44.558 74.007 43.91 75.288 43.25 76.562 C42.722 77.596 42.722 77.596 42.183 78.651 C36.02 90.428 28.32 100.978 19.688 111.062 C18.889 112.045 18.889 112.045 18.074 113.047 C14.359 117.574 10.223 121.366 5.688 125.062 C4.835 125.764 3.983 126.465 3.105 127.188 C-18.068 143.871 -43.624 152.645 -70.719 149.598 C-98.976 145.968 -124.331 131.211 -142.312 109.062 C-143.085 108.116 -143.857 107.17 -144.652 106.195 C-151.002 98.262 -156.362 89.928 -161.312 81.062 C-161.671 80.431 -162.029 79.799 -162.398 79.148 C-163.436 77.298 -164.442 75.435 -165.438 73.562 C-166.308 71.938 -166.308 71.938 -167.195 70.281 C-169.092 64.817 -167.777 60.766 -165.379 55.715 C-164.559 54.136 -163.723 52.564 -162.875 51 C-162.204 49.749 -162.204 49.749 -161.519 48.472 C-145.909 19.962 -121.606 -5.988 -89.938 -15.875 C-87.405 -16.61 -84.867 -17.279 -82.312 -17.938 C-81.431 -18.182 -80.549 -18.427 -79.641 -18.68 C-52.731 -24.936 -21.529 -16.914 0 0 Z M-131.312 14.062 C-131.966 14.652 -132.62 15.241 -133.293 15.848 C-143.076 25.026 -150.634 36.488 -157.375 48 C-157.828 48.768 -158.281 49.536 -158.747 50.327 C-160.009 52.543 -161.183 54.777 -162.312 57.062 C-162.683 57.802 -163.054 58.541 -163.436 59.302 C-164.819 62.555 -165.614 64.868 -164.732 68.358 C-163.637 70.815 -162.386 73.07 -161 75.375 C-160.531 76.204 -160.062 77.033 -159.578 77.887 C-158.193 80.303 -156.765 82.686 -155.312 85.062 C-154.755 85.984 -154.755 85.984 -154.186 86.923 C-149.543 94.484 -144.079 101.337 -138.312 108.062 C-137.592 108.918 -136.871 109.774 -136.129 110.656 C-119.489 129.877 -95.121 144.277 -69.468 146.285 C-37.64 147.552 -13.393 137.929 10.129 116.519 C22.991 104.499 32.669 89.534 40.668 73.968 C41.688 72.062 41.688 72.062 43.656 69.098 C45.23 64.465 43.669 61.383 41.688 57.062 C40.127 53.898 38.419 50.85 36.625 47.812 C36.141 46.987 35.657 46.161 35.159 45.311 C28.537 34.219 20.539 24.465 11.688 15.062 C11.128 14.45 10.569 13.838 9.992 13.207 C-5.261 -2.894 -24.871 -11.679 -46.312 -15.938 C-47.447 -16.164 -48.581 -16.391 -49.75 -16.625 C-81.36 -19.398 -108.492 -7.454 -131.312 14.062 Z " fill="#F98742" transform="translate(316.3125,226.9375)"/>
<path d="M0 0 C5.45 4.521 8.868 9.988 10 17 C10.511 24.792 7.941 31.02 3 37 C-3.442 42.299 -9.404 43.433 -17.637 43.332 C-23.71 42.732 -27.824 40.509 -31.812 35.91 C-36.443 29.398 -38.729 23.267 -37.531 15.266 C-35.843 8.065 -32.177 3.038 -26 -1 C-17.16 -5.695 -8.561 -4.95 0 0 Z " fill="#FAAF85" transform="translate(270,272)"/>
<path d="M0 0 C3.303 3.068 5.008 6.703 7 10.688 C22.152 40.038 44.683 64.377 75 78 C75.915 78.42 76.83 78.84 77.773 79.273 C102.687 89.997 131.037 87.551 155.811 77.918 C190.852 63.216 211.575 32.085 229 0 C229.33 0 229.66 0 230 0 C229.591 6.93 227.471 11.871 224.188 17.938 C223.698 18.854 223.208 19.771 222.703 20.715 C204.955 53.196 178.423 79.973 142.48 91.035 C115.504 98.514 86.966 94.089 62.688 80.688 C55.868 76.781 49.856 72.252 44 67 C42.993 66.125 41.985 65.25 40.977 64.375 C23.735 49.216 7.36 27.079 0 5 C-0.121 2.199 -0.121 2.199 0 0 Z " fill="#2B1C4B" transform="translate(141,297)"/>
<path d="M0 0 C19.643 16.081 39.801 38.16 46.715 63.223 C45.725 63.553 44.735 63.883 43.715 64.223 C43.181 63.158 42.648 62.093 42.098 60.996 C35.424 47.904 27.903 36.249 17.82 25.504 C16.266 23.82 14.788 22.066 13.355 20.277 C10.657 17.018 7.614 14.434 4.277 11.848 C3.366 11.139 3.366 11.139 2.436 10.416 C-19.231 -6.065 -44.72 -13.785 -71.87 -10.461 C-91.199 -7.267 -108.499 1.483 -123.285 14.223 C-123.97 14.774 -124.654 15.326 -125.359 15.895 C-131.157 20.679 -135.683 26.307 -140.285 32.223 C-141.029 33.151 -141.773 34.079 -142.539 35.035 C-149.602 44.076 -155.262 53.914 -160.285 64.223 C-161.275 63.893 -162.265 63.563 -163.285 63.223 C-161.364 56.62 -158.715 50.884 -155.223 44.973 C-154.739 44.147 -154.255 43.322 -153.756 42.471 C-147.134 31.379 -139.136 21.626 -130.285 12.223 C-129.675 11.548 -129.066 10.874 -128.438 10.18 C-95.046 -25.339 -38.567 -29.392 0 0 Z " fill="#2C1D4B" transform="translate(314.28515625,229.77734375)"/>
<path d="M0 0 C11.902 10.006 19.533 22.57 22 38 C23.065 55.553 18.935 71.285 7.375 84.875 C-4.201 96.803 -18.773 102.783 -35.188 103.25 C-50.994 103.052 -65.289 96.67 -76.598 85.66 C-87.863 73.186 -92.373 58.424 -92.211 41.879 C-91.324 25.578 -83.57 12.936 -72 2 C-51.61 -15.56 -21.459 -15.536 0 0 Z M-74 8 C-84.343 20.284 -89.531 33.772 -88.938 49.875 C-87.38 65.924 -79.885 78.57 -67.781 88.992 C-54.781 98.377 -40.547 100.305 -25 99 C-20.704 98.151 -16.956 96.859 -13 95 C-12.218 94.649 -11.435 94.299 -10.629 93.938 C1.818 87.725 10.85 77.064 15.875 64.25 C20.667 49.669 19.616 35.698 13.422 21.762 C10.268 15.635 6.042 10.673 1 6 C0.535 5.529 0.069 5.059 -0.41 4.574 C-10.493 -5.014 -24.284 -8.555 -37.867 -8.242 C-51.141 -7.216 -64.869 -2.038 -74 8 Z " fill="#F78743" transform="translate(291,246)"/>
<path d="M0 0 C14.168 11.592 20.556 27.438 22.59 45.168 C23.331 60.962 16.763 76.786 6.688 88.688 C-4.66 100.262 -19.361 107.741 -35.68 107.992 C-53.611 108.048 -68.363 103.352 -81.688 90.75 C-93.321 78.683 -99.306 64.027 -100.062 47.25 C-99.294 30.859 -93.328 15.51 -81.688 3.75 C-57.316 -17.55 -26.123 -18.914 0 0 Z M-85.859 13.52 C-95.057 27.256 -98.198 42.87 -95.508 59.18 C-92.125 73.905 -83.25 87.175 -70.762 95.762 C-56.592 104.35 -40.756 107.285 -24.438 103.625 C-13.294 100.363 -4.814 94.978 3.312 86.75 C3.876 86.209 4.439 85.667 5.02 85.109 C14.64 75.057 19.138 60.379 19.312 46.75 C18.389 32.045 13.711 20.061 4.312 8.75 C3.531 7.781 3.531 7.781 2.734 6.793 C-7.073 -4.178 -21.624 -8.919 -35.805 -10.625 C-55.666 -11.486 -73.777 -1.888 -85.859 13.52 Z " fill="#E7E3EC" transform="translate(294.6875,71.25)"/>
<path d="M0 0 C10.965 10.285 17.516 24.262 18.188 39.25 C17.526 55.992 11.8 70.235 -0.438 82 C-13.45 92.672 -28.466 95.695 -44.812 94.25 C-57.858 91.831 -71.09 84.544 -78.979 73.637 C-87.955 59.971 -91.52 45.732 -88.602 29.488 C-85.823 18.086 -80.372 9.184 -71.812 1.25 C-71.347 0.779 -70.882 0.309 -70.402 -0.176 C-50.809 -18.806 -20.146 -15.76 0 0 Z M-74.812 8.25 C-85.142 20.913 -86.745 34.503 -85.812 50.25 C-85.27 53.881 -84.331 56.917 -82.812 60.25 C-82.434 61.125 -82.055 62.001 -81.664 62.902 C-74.827 76.991 -63.756 84.932 -49.414 90.117 C-36.755 93.553 -22.872 91.446 -11.25 85.75 C0.797 78.675 9.292 67.774 13.348 54.434 C16.635 40.151 14.395 25.992 6.938 13.5 C-1.006 1.892 -11.835 -5.686 -25.562 -9.25 C-44.781 -12.277 -61.57 -5.761 -74.812 8.25 Z " fill="#E6E3EC" transform="translate(291.8125,77.75)"/>
<path d="M0 0 C11.827 7.631 19.097 17.97 23.312 31.312 C25.989 45.171 23.48 59.513 15.875 71.375 C6.667 83.368 -5.078 90.929 -20.125 93.375 C-35.536 94.538 -48.59 90.139 -60.375 80.188 C-69.815 71.258 -75.43 60.031 -76.363 47.062 C-76.678 31.421 -72.263 18.767 -61.625 7.188 C-44.641 -9.128 -20.202 -11.008 0 0 Z M-62.125 12.375 C-70.824 23.81 -74.322 35.59 -72.723 50 C-70.189 63.673 -63.944 73.947 -52.676 82.16 C-40.729 89.793 -27.446 91.407 -13.613 88.684 C-7.056 86.677 -1.467 83.657 3.875 79.375 C4.563 78.823 5.252 78.272 5.961 77.703 C13.929 70.559 19.336 59.824 20.723 49.215 C21.489 34.932 17.98 22.546 8.875 11.375 C-0.578 1.269 -13.222 -3.4 -26.875 -3.875 C-40.387 -3.691 -53.071 2.481 -62.125 12.375 Z " fill="#F88742" transform="translate(282.125,248.625)"/>
<path d="M0 0 C1.916 2.874 3.007 5.419 4.25 8.625 C6.585 14.291 9.312 19.119 13 24 C13.477 24.665 13.954 25.33 14.445 26.016 C22.75 36.615 36.791 43.978 50 46 C69.473 47.345 85.457 44.027 100.812 31.188 C109.845 22.694 115.489 11.809 119 0 C119.33 0 119.66 0 120 0 C121.372 11.802 113.566 24.191 106.938 33.5 C97.362 45.382 82.938 52.694 68 55 C51.854 56.365 36.293 53.171 23.348 42.895 C20.807 40.674 18.388 38.384 16 36 C15.025 35.043 15.025 35.043 14.031 34.066 C6.62 26.248 -0.121 13.973 -0.188 2.938 C-0.126 1.968 -0.064 0.999 0 0 Z " fill="#2D1D4C" transform="translate(196,132)"/>
<path d="M0 0 C1.734 3.257 2.951 6.589 4.188 10.062 C10.45 26.32 20.513 36.231 36.176 43.402 C49.873 49.316 65.221 48.111 78.938 42.875 C95.05 35.813 104.664 24.042 111 8 C111.784 5.344 112.405 2.708 113 0 C113.33 0 113.66 0 114 0 C115.111 11.945 109.112 24.432 101.93 33.66 C92.151 44.955 79.989 53.755 64.696 55.221 C47.49 56.047 32.768 53.062 19.238 41.676 C9.697 32.591 2.037 20.218 0 7 C-0.038 4.667 -0.046 2.333 0 0 Z " fill="#2B1C4B" transform="translate(199,301)"/>
<path d="M0 0 C2.24 0.425 2.24 0.425 4.115 1.613 C5.24 3.425 5.24 3.425 5.008 5.808 C4.151 8.73 3.21 9.966 1.085 12.114 C0.088 13.135 0.088 13.135 -0.929 14.176 C-1.652 14.894 -2.375 15.611 -3.119 16.351 C-3.861 17.099 -4.602 17.846 -5.366 18.617 C-6.935 20.192 -8.509 21.763 -10.087 23.329 C-12.503 25.731 -14.894 28.156 -17.283 30.583 C-18.811 32.112 -20.339 33.638 -21.869 35.164 C-22.584 35.892 -23.299 36.62 -24.035 37.37 C-24.712 38.034 -25.39 38.699 -26.087 39.384 C-26.677 39.972 -27.267 40.561 -27.875 41.168 C-30.341 42.813 -31.851 42.792 -34.76 42.425 C-37.24 40.577 -37.24 40.577 -39.807 38.007 C-40.734 37.082 -41.661 36.158 -42.615 35.205 C-43.09 34.717 -43.565 34.23 -44.054 33.728 C-45.504 32.244 -46.975 30.786 -48.451 29.33 C-56.523 21.173 -56.523 21.173 -56.76 16.425 C-55.135 14.05 -55.135 14.05 -52.76 12.425 C-48.712 12.739 -46.774 13.923 -43.99 16.804 C-43 17.815 -43 17.815 -41.989 18.845 C-41.315 19.552 -40.641 20.259 -39.948 20.988 C-39.255 21.699 -38.562 22.41 -37.848 23.142 C-36.143 24.894 -34.447 26.656 -32.76 28.425 C-28.578 26.804 -25.885 23.717 -22.858 20.542 C-21.709 19.364 -20.56 18.185 -19.41 17.007 C-17.61 15.151 -15.814 13.292 -14.026 11.424 C-12.293 9.619 -10.546 7.83 -8.795 6.042 C-8.265 5.48 -7.734 4.918 -7.188 4.338 C-4.839 1.957 -3.362 0.518 0 0 Z " fill="#E6E2EB" transform="translate(281.760009765625,100.57470703125)"/>
<path d="M0 0 C1.32 0 2.64 0 4 0 C4 65.01 4 130.02 4 197 C2.68 197 1.36 197 0 197 C0 131.99 0 66.98 0 0 Z " fill="#EC98BB" transform="translate(428,150)"/>
<path d="M0 0 C1.32 0 2.64 0 4 0 C4 65.01 4 130.02 4 197 C2.68 197 1.36 197 0 197 C0 131.99 0 66.98 0 0 Z " fill="#EC98BB" transform="translate(80,150)"/>
<path d="M0 0 C8.981 8.43 15.897 20.109 16.543 32.59 C16.481 33.374 16.419 34.157 16.355 34.965 C14.584 32.307 13.708 30.305 12.668 27.34 C10.786 22.471 8.204 18.84 4.844 14.875 C3.355 12.965 3.355 12.965 2.355 9.965 C0.514 8.903 0.514 8.903 -1.645 7.965 C-3.03 7.022 -4.404 6.062 -5.77 5.09 C-17.622 -2.909 -31.255 -5.016 -45.23 -2.352 C-52.771 -0.193 -60.705 2.941 -66.293 8.648 C-67.645 9.965 -67.645 9.965 -69.645 9.965 C-69.905 10.531 -70.165 11.097 -70.434 11.68 C-71.754 14.172 -73.321 16.276 -75.02 18.527 C-78.703 23.687 -80.798 28.932 -82.645 34.965 C-82.975 34.965 -83.305 34.965 -83.645 34.965 C-83.293 20.535 -76.666 9.608 -66.52 -0.223 C-47.031 -16.884 -19.734 -15.187 0 0 Z " fill="#2E1E4D" transform="translate(289.64453125,80.03515625)"/>
<path d="M0 0 C9.461 7.223 16.384 16.59 19.359 28.242 C19.435 30.574 19.453 32.911 19.359 35.242 C17.271 32.11 15.821 28.967 14.234 25.555 C8.941 14.709 1.048 7.812 -10.16 3.207 C-22.39 -0.735 -35.946 0.034 -47.641 5.242 C-58.629 11.276 -65.603 19.937 -70.641 31.242 C-71.301 32.579 -71.965 33.913 -72.641 35.242 C-73.539 25.137 -68.949 16.633 -62.895 8.816 C-47.146 -9.17 -20.164 -13.423 0 0 Z " fill="#2C1D4B" transform="translate(282.640625,252.7578125)"/>
<path d="M0 0 C4.126 1.742 6.733 4.138 9 8 C9.857 12.685 9.442 16.081 7.375 20.375 C3.782 24.346 0.8 25.775 -4.5 26.438 C-9.644 25.794 -12.538 23.706 -15.875 19.812 C-17.861 14.847 -17.854 10.067 -15.812 5.125 C-11.308 -0.156 -6.649 -0.884 0 0 Z " fill="#392B71" transform="translate(260,279)"/>
<path d="M0 0 C5.45 4.521 8.868 9.988 10 17 C10.511 24.792 7.941 31.02 3 37 C-3.442 42.299 -9.404 43.433 -17.637 43.332 C-23.71 42.732 -27.824 40.509 -31.812 35.91 C-36.443 29.398 -38.729 23.267 -37.531 15.266 C-35.843 8.065 -32.177 3.038 -26 -1 C-17.16 -5.695 -8.561 -4.95 0 0 Z M-29.25 6.438 C-33.544 11.598 -34.465 15.508 -34.305 22.184 C-33.733 27.468 -31.974 31.147 -28.094 34.789 C-22.315 39.339 -17.439 40.78 -10 40 C-3.739 37.878 0.976 35.173 4.312 29.375 C6.788 23.939 7.054 18.519 5.34 12.797 C3.088 7.688 -0.382 4.096 -5 1 C-14.028 -2.009 -22.873 -0.671 -29.25 6.438 Z " fill="#F78743" transform="translate(270,272)"/>
<path d="M0 0 C0.539 3.08 0.563 5.183 -1.247 7.81 C-3.112 9.874 -5.05 11.828 -7.043 13.77 C-7.764 14.491 -8.484 15.213 -9.227 15.956 C-10.752 17.477 -12.285 18.99 -13.824 20.497 C-16.179 22.804 -18.506 25.137 -20.83 27.475 C-22.316 28.95 -23.804 30.423 -25.293 31.895 C-26.337 32.941 -26.337 32.941 -27.402 34.009 C-28.062 34.65 -28.723 35.292 -29.403 35.952 C-29.978 36.518 -30.553 37.084 -31.146 37.667 C-33.45 39.323 -35.182 39.773 -38 40 C-40.587 38.189 -40.587 38.189 -43.301 35.496 C-43.782 35.021 -44.263 34.545 -44.759 34.055 C-45.772 33.046 -46.778 32.029 -47.777 31.006 C-49.304 29.446 -50.861 27.921 -52.424 26.396 C-53.406 25.411 -54.385 24.423 -55.363 23.434 C-56.253 22.537 -57.143 21.64 -58.06 20.717 C-60.341 17.523 -60.418 15.84 -60 12 C-56.625 13.445 -54.602 15.25 -52.137 17.949 C-51.414 18.714 -50.692 19.479 -49.947 20.268 C-48.44 21.881 -46.945 23.506 -45.463 25.143 C-44.737 25.904 -44.01 26.665 -43.262 27.449 C-42.612 28.154 -41.962 28.859 -41.292 29.585 C-38.978 31.272 -38.978 31.272 -35.682 31.138 C-30.753 29.615 -28.307 27.034 -24.824 23.34 C-24.173 22.675 -23.522 22.011 -22.851 21.326 C-20.782 19.21 -18.734 17.075 -16.688 14.938 C-14.62 12.8 -12.548 10.666 -10.471 8.538 C-9.181 7.214 -7.898 5.885 -6.621 4.548 C-2.221 0 -2.221 0 0 0 Z " fill="#291B4A" transform="translate(286,111)"/>
<path d="M0 0 C1.046 0.02 2.092 0.04 3.169 0.061 C4.351 0.081 5.532 0.101 6.749 0.121 C8.034 0.148 9.319 0.176 10.644 0.203 C11.952 0.227 13.26 0.251 14.608 0.275 C18.092 0.338 21.575 0.407 25.059 0.477 C28.611 0.548 32.164 0.613 35.716 0.678 C42.691 0.807 49.665 0.943 56.64 1.082 C56.64 3.392 56.64 5.702 56.64 8.082 C49.112 8.129 41.585 8.164 34.057 8.186 C30.561 8.196 27.066 8.211 23.571 8.233 C19.555 8.259 15.539 8.269 11.523 8.278 C9.635 8.293 9.635 8.293 7.709 8.309 C6.548 8.309 5.387 8.309 4.191 8.309 C3.165 8.314 2.139 8.318 1.082 8.323 C-1.36 8.082 -1.36 8.082 -3.36 6.082 C-3.548 3.52 -3.548 3.52 -3.36 1.082 C-2.36 0.082 -2.36 0.082 0 0 Z " fill="#291B4A" transform="translate(327.36012268066406,98.91770935058594)"/>
<path d="M0 0 C-0.875 5.875 -0.875 5.875 -2 7 C-3.811 7.094 -5.625 7.117 -7.438 7.114 C-9.179 7.113 -9.179 7.113 -10.956 7.113 C-12.852 7.106 -12.852 7.106 -14.785 7.098 C-16.071 7.096 -17.357 7.095 -18.682 7.093 C-22.106 7.09 -25.531 7.08 -28.955 7.069 C-32.447 7.058 -35.94 7.054 -39.432 7.049 C-46.288 7.038 -53.144 7.021 -60 7 C-60 4.69 -60 2.38 -60 0 C-52.62 -0.154 -45.24 -0.302 -37.86 -0.443 C-34.433 -0.509 -31.006 -0.576 -27.579 -0.648 C-23.64 -0.731 -19.701 -0.805 -15.762 -0.879 C-14.53 -0.906 -13.299 -0.933 -12.03 -0.961 C-10.889 -0.981 -9.749 -1.001 -8.573 -1.022 C-7.064 -1.052 -7.064 -1.052 -5.525 -1.082 C-3 -1 -3 -1 0 0 Z " fill="#291B4A" transform="translate(188,100)"/>
<path d="M0 0 C0.33 0 0.66 0 1 0 C1.737 7.182 -1.389 13.233 -5.688 18.812 C-10.375 23.864 -16.109 26.155 -22.938 26.562 C-30.206 26.223 -36.487 22.97 -41.5 17.75 C-44.51 13.899 -45.372 9.773 -46 5 C-43 6 -43 6 -41.375 8.75 C-38.566 13.106 -34.856 15.334 -30 17 C-22.524 18.159 -15.798 17.519 -9.164 13.77 C-5.277 10.591 -3.144 6.47 -1 2 C-0.67 1.34 -0.34 0.68 0 0 Z " fill="#2C1D4C" transform="translate(279,297)"/>
<path d="M0 0 C4.697 3.131 8.514 7.293 9.812 12.875 C9.997 18.605 8.903 22.969 5.246 27.434 C1.414 31.287 -2.36 32.094 -7.625 32.375 C-13.116 32.218 -16.38 30.802 -20.188 26.875 C-23.594 22.787 -24.467 18.109 -24.188 12.875 C-22.49 6.944 -19.146 3.356 -14.188 -0.125 C-9.207 -1.785 -4.885 -1.724 0 0 Z M-19 8 C-20.67 12.042 -20.872 15.563 -20.188 19.875 C-17.994 24.263 -15.742 26.968 -11.188 28.875 C-5.974 29.444 -2.561 28.791 1.812 25.875 C5.452 21.853 6.564 18.436 6.34 13.129 C5.41 9.153 2.926 6.42 -0.188 3.875 C-7.384 1.476 -13.92 2.044 -19 8 Z " fill="#F88743" transform="translate(263.1875,276.125)"/>
<path d="M0 0 C0.99 0.33 1.98 0.66 3 1 C1.67 3.953 0.222 6.024 -2.073 8.3 C-3.003 9.23 -3.003 9.23 -3.953 10.18 C-4.955 11.166 -4.955 11.166 -5.977 12.172 C-6.662 12.854 -7.347 13.537 -8.053 14.24 C-10.239 16.415 -12.432 18.582 -14.625 20.75 C-16.11 22.225 -17.594 23.7 -19.078 25.176 C-22.714 28.789 -26.355 32.396 -30 36 C-33.523 34.341 -35.799 32.433 -38.547 29.648 C-39.391 28.798 -40.236 27.947 -41.105 27.07 C-42.415 25.736 -42.415 25.736 -43.75 24.375 C-44.638 23.478 -45.526 22.581 -46.441 21.656 C-48.632 19.442 -50.818 17.223 -53 15 C-52.01 14.01 -51.02 13.02 -50 12 C-49.511 12.52 -49.022 13.04 -48.519 13.576 C-46.299 15.921 -44.056 18.241 -41.812 20.562 C-41.044 21.382 -40.275 22.201 -39.482 23.045 C-38.356 24.2 -38.356 24.2 -37.207 25.379 C-36.521 26.096 -35.835 26.814 -35.128 27.553 C-33.068 29.268 -33.068 29.268 -30.387 28.859 C-27.003 27.641 -25.404 25.665 -23 23 C-21.949 21.874 -20.897 20.749 -19.844 19.625 C-18.728 18.418 -17.614 17.209 -16.5 16 C-4.772 3.265 -4.772 3.265 0 0 Z " fill="#D2D1D4" transform="translate(281,104)"/>
<path d="M0 0 C4.122 1.741 6.662 4.19 9 8 C9.25 11.812 9.25 11.812 9 15 C8.599 14.578 8.198 14.157 7.785 13.723 C3.791 9.874 0.733 8.094 -4.859 7.828 C-10.168 8.254 -13.569 11.173 -17 15 C-17.293 10.015 -17.183 6.952 -14 3 C-9.758 -0.618 -5.33 -0.709 0 0 Z " fill="#2B1C4B" transform="translate(260,279)"/>
<path d="M0 0 C0.907 0.351 1.815 0.701 2.75 1.062 C5.878 1.965 7.052 2.134 10 1 C10.359 6.382 10.359 6.382 8.875 8.938 C7 10 7 10 3.875 9.812 C2.926 9.544 1.978 9.276 1 9 C-0.478 6.043 -0.06 3.258 0 0 Z " fill="#291B4A" transform="translate(77,348)"/>
<path d="M0 0 C0.36 6.36 0.36 6.36 -1.125 9 C-3.984 10.525 -5.967 9.857 -9 9 C-10.354 6.291 -10.065 3.991 -10 1 C-9.072 1.206 -8.144 1.413 -7.188 1.625 C-3.425 2.068 -3.226 0 0 0 Z " fill="#291B4A" transform="translate(435,348)"/>
</svg>